<svg id="svgLogo" enable-background="new 0 0 511.971 511.971" height="512" viewBox="0 0 511.971 511.971" width="512" xmlns="http://www.w3.org/2000/svg"><g><path d="m352.281 403.973-39.213-39.215c-7.549-7.547-17.584-11.704-28.258-11.704-10.675 0-20.71 4.157-28.258 11.705l-7.188 7.188c-5.501 5.501-12.297 8.176-20.777 8.176 0 0-.001 0-.002 0-31.349-.002-75.923-36.062-91.719-74.2-5.395-13.023-9.244-31.129 3.049-43.423l7.248-7.247c7.553-7.554 11.71-17.597 11.704-28.278-.005-10.683-4.173-20.721-11.734-28.268l-39.254-39.171c-7.545-7.529-17.57-11.677-28.229-11.677-10.674 0-20.709 4.157-28.258 11.705l-19.623 19.626c-35.334 35.333-41.417 87.076-17.129 145.699 18.879 45.566 55.146 92.244 99.502 128.063 47.035 37.982 96.644 58.896 139.704 58.896h.023c31.228-.005 57.742-10.688 78.805-31.752l19.606-19.606c7.549-7.548 11.705-17.584 11.705-28.258.001-10.676-4.156-20.712-11.704-28.259z" fill="#EFEFEF"/><path d="m358.476 169.477c20.247 0 36.719-16.473 36.719-36.72s-16.472-36.72-36.719-36.72-36.72 16.473-36.72 36.72 16.473 36.72 36.72 36.72z" fill="#EFEFEF"/><path d="m376.534 229.567h-35.344c-31.552 0-59.844 20.705-69.507 50.581 24.704 16.999 54.605 26.966 86.793 26.966 32.464 0 62.601-10.139 87.427-27.406-9.798-29.64-37.972-50.141-69.369-50.141z" fill="#EFEFEF"/><path d="m278.883 220.539c18.043-13.72 39.589-20.972 62.308-20.972h35.344c22.719 0 44.265 7.252 62.308 20.973 13.303 10.115 24.004 23.475 31.066 38.532 26.058-27.521 42.064-64.651 42.064-105.453 0-84.638-68.857-153.495-153.495-153.495s-153.498 68.857-153.498 153.495c0 41.074 16.219 78.43 42.586 106.005 7.058-15.28 17.852-28.846 31.317-39.085zm79.593-154.501c36.789 0 66.719 29.931 66.719 66.72s-29.93 66.72-66.719 66.72-66.72-29.931-66.72-66.72 29.931-66.72 66.72-66.72z" fill="#EFEFEF"/></g></svg>