<?xml version="1.0" encoding="UTF-8" standalone="no"?>
<svg
   xmlns:dc="http://purl.org/dc/elements/1.1/"
   xmlns:cc="http://creativecommons.org/ns#"
   xmlns:rdf="http://www.w3.org/1999/02/22-rdf-syntax-ns#"
   xmlns:svg="http://www.w3.org/2000/svg"
   xmlns="http://www.w3.org/2000/svg"
   xmlns:sodipodi="http://sodipodi.sourceforge.net/DTD/sodipodi-0.dtd"
   xmlns:inkscape="http://www.inkscape.org/namespaces/inkscape"
   viewBox="0 0 133 48"
   fill="none"
   version="1.1"
   id="svg41"
   sodipodi:docname="logo.svg"
   width="133"
   height="48"
   inkscape:version="1.0.2-2 (e86c870879, 2021-01-15)">
  <metadata
     id="metadata45">
    <rdf:RDF>
      <cc:Work
         rdf:about="">
        <dc:format>image/svg+xml</dc:format>
        <dc:type
           rdf:resource="http://purl.org/dc/dcmitype/StillImage" />
        <dc:title></dc:title>
      </cc:Work>
    </rdf:RDF>
  </metadata>
  <sodipodi:namedview
     pagecolor="#ffffff"
     bordercolor="#666666"
     borderopacity="1"
     objecttolerance="10"
     gridtolerance="10"
     guidetolerance="10"
     inkscape:pageopacity="0"
     inkscape:pageshadow="2"
     inkscape:window-width="1280"
     inkscape:window-height="737"
     id="namedview43"
     showgrid="false"
     fit-margin-top="0"
     fit-margin-left="0"
     fit-margin-right="0"
     fit-margin-bottom="0"
     inkscape:zoom="8.1615385"
     inkscape:cx="68.892403"
     inkscape:cy="23"
     inkscape:window-x="-8"
     inkscape:window-y="-8"
     inkscape:window-maximized="1"
     inkscape:current-layer="svg41" />
  <g
     clip-path="url(#clip0)"
     id="g34">
    <path
       d="m 12.0418,44.3684 v 1.4941 H 3.34769 V 33.8457 h 8.45491 v 1.4941 H 5.0594 v 3.6906 h 6.0083 v 1.4595 H 5.0594 v 3.8785 z"
       fill="#FFC845"
       id="path2" />
    <path
       d="m 15.6965,45.5828 c -0.839,-0.2799 -1.4978,-0.6433 -1.9762,-1.0902 l 0.6326,-1.3329 c 0.5144,0.4454 1.1102,0.7863 1.7542,1.0037 0.7052,0.256 1.4495,0.3868 2.1995,0.3865 0.9923,0 1.7339,-0.1688 2.2247,-0.5065 0.2288,-0.1431 0.4166,-0.3435 0.545,-0.5813 0.1283,-0.2379 0.1929,-0.5051 0.1872,-0.7755 0.0076,-0.186 -0.024,-0.3715 -0.0927,-0.5444 -0.0687,-0.173 -0.1729,-0.3294 -0.3059,-0.4592 -0.2833,-0.268 -0.6217,-0.4705 -0.9915,-0.5932 -0.3951,-0.1377 -0.9515,-0.2918 -1.6691,-0.4624 -0.7411,-0.1689 -1.4701,-0.3871 -2.1822,-0.6531 -0.5482,-0.2132 -1.0359,-0.5578 -1.4207,-1.0037 -0.3934,-0.4513 -0.59,-1.0609 -0.59,-1.8286 -0.0074,-0.6149 0.168,-1.2181 0.5036,-1.7327 0.3818,-0.551 0.9138,-0.9799 1.5323,-1.2355 0.6849,-0.3092 1.535,-0.4638 2.5503,-0.4638 0.7051,10e-5 1.4071,0.0933 2.0878,0.2772 0.6294,0.1576 1.2263,0.4247 1.7636,0.789 l -0.5648,1.3728 c -0.4993,-0.3182 -1.0412,-0.5637 -1.6094,-0.729 -0.5446,-0.1619 -1.1092,-0.2458 -1.6772,-0.2493 -0.9745,0 -1.7019,0.1778 -2.1821,0.5332 -0.2257,0.1502 -0.4104,0.3546 -0.5373,0.5946 -0.127,0.2399 -0.1922,0.5079 -0.1897,0.7795 -0.0068,0.187 0.0263,0.3733 0.0971,0.5464 0.0709,0.1731 0.1778,0.329 0.3136,0.4572 0.2936,0.2697 0.6404,0.4745 1.018,0.6012 0.5421,0.181 1.0935,0.3327 1.6519,0.4545 0.7382,0.168 1.4641,0.3862 2.1728,0.653 0.5435,0.2133 1.0279,0.5543 1.4127,0.9943 0.3934,0.4443 0.5901,1.045 0.5901,1.802 0.0044,0.6134 -0.1742,1.214 -0.513,1.7247 -0.3429,0.5216 -0.862,0.9334 -1.5575,1.2355 -0.6955,0.3021 -1.5514,0.4541 -2.5676,0.4559 -0.887,0.0029 -1.7685,-0.1389 -2.6101,-0.4199 z"
       fill="#FFC845"
       id="path4" />
    <path
       d="m 27.6519,35.3398 h -4.1078 v -1.4941 h 9.9101 v 1.4941 h -4.1078 v 10.5227 h -1.6945 z"
       fill="#FFC845"
       id="path6" />
    <path
       d="m 44.3053,40.4032 c 0.4554,-0.6513 0.6835,-1.4408 0.6844,-2.3684 0,-1.3053 -0.443,-2.3294 -1.329,-3.0722 -0.886,-0.7428 -2.1069,-1.1151 -3.6626,-1.1169 h -4.6793 v 12.0168 h 1.7117 v -3.6573 h 2.9609 c 0.1821,0 0.4333,-0.0106 0.7535,-0.0333 l 2.5796,3.6906 H 45.185 L 42.3437,41.828 c 0.789,-0.2523 1.4765,-0.7516 1.9616,-1.4248 z m -4.3657,0.3439 h -2.9091 v -5.4073 h 2.9091 c 1.0844,0 1.9119,0.2319 2.4825,0.6957 0.5706,0.4639 0.8559,1.1303 0.8559,1.9993 0,0.8699 -0.2853,1.5394 -0.8559,2.0086 -0.5706,0.4691 -1.3981,0.7037 -2.4825,0.7037 z"
       fill="#FFC845"
       id="path8" />
    <path
       d="m 56.1318,40.6098 c 0,1.3035 -0.2911,2.2734 -0.8732,2.9096 -0.5821,0.6362 -1.4206,0.9534 -2.5157,0.9516 -2.2486,0 -3.3729,-1.2884 -3.3729,-3.8652 v -6.7601 h -1.7104 v 6.8321 c 0,1.7167 0.443,3.0326 1.3289,3.9478 0.886,0.9153 2.13,1.3733 3.7318,1.3742 1.5948,0 2.8382,-0.4549 3.7304,-1.3648 0.8922,-0.9099 1.3374,-2.229 1.3356,-3.9572 v -6.8321 h -1.6545 z"
       fill="#FFC845"
       id="path10" />
    <path
       d="m 64.3289,35.8372 c 0.7395,-0.4051 1.5708,-0.6118 2.4134,-0.5998 0.6305,-0.015 1.257,0.1042 1.8381,0.3498 0.5812,0.2456 1.1038,0.612 1.5335,1.075 l 1.119,-1.0756 c -0.5457,-0.6184 -1.2285,-1.0996 -1.9935,-1.4048 -0.8169,-0.3226 -1.6884,-0.4833 -2.5662,-0.4732 -1.1342,-0.0154 -2.2536,0.2599 -3.252,0.7997 -0.9456,0.5092 -1.7332,1.2696 -2.2765,2.1979 -0.5385,0.9618 -0.8213,2.0464 -0.8213,3.1494 0,1.1031 0.2828,2.1877 0.8213,3.1495 0.5411,0.9268 1.3253,1.6869 2.2672,2.1979 0.9954,0.5402 2.1123,0.8156 3.244,0.7997 0.8845,0.0099 1.7622,-0.1545 2.5835,-0.4839 0.7637,-0.3064 1.4461,-0.7863 1.9935,-1.4021 l -1.1124,-1.0809 c -0.4286,0.4653 -0.9507,0.8343 -1.5318,1.0827 -0.5812,0.2483 -1.2082,0.3704 -1.8398,0.3581 -0.8425,0.0119 -1.6739,-0.1947 -2.4134,-0.5998 -0.7035,-0.3855 -1.2868,-0.959 -1.6851,-1.6567 -0.3984,-0.7226 -0.6074,-1.5348 -0.6074,-2.3605 0,-0.8256 0.209,-1.6378 0.6074,-2.3604 0.3957,-0.6988 0.9767,-1.2741 1.6785,-1.662 z"
       fill="#FFC845"
       id="path12" />
    <path
       d="m 71.8083,35.3398 h 4.1079 v 10.5227 h 1.6944 V 35.3398 h 4.1079 v -1.4941 h -9.9102 z"
       fill="#FFC845"
       id="path14" />
    <path
       d="m 91.7309,40.6098 c 0,1.3035 -0.291,2.2734 -0.8731,2.9096 -0.5821,0.6362 -1.4207,0.9534 -2.5158,0.9516 -2.2477,0 -3.3716,-1.2884 -3.3716,-3.8652 v -6.7601 h -1.7117 v 6.8321 c 0,1.7167 0.443,3.0326 1.329,3.9478 0.886,0.9153 2.1295,1.3733 3.7304,1.3742 1.5948,0 2.8387,-0.4549 3.7318,-1.3648 0.8931,-0.9099 1.336,-2.229 1.329,-3.9572 v -6.8321 h -1.648 z"
       fill="#FFC845"
       id="path16" />
    <path
       d="m 105.884,40.4032 c 0.458,-0.6513 0.686,-1.4408 0.686,-2.3684 0,-1.3053 -0.443,-2.3294 -1.329,-3.0722 -0.886,-0.7428 -2.107,-1.1151 -3.662,-1.1169 h -4.6797 v 12.0168 h 1.7104 v -3.6573 h 2.9613 c 0.182,0 0.433,-0.0106 0.753,-0.0333 l 2.585,3.6906 h 1.861 l -2.842,-4.0345 c 0.788,-0.2527 1.473,-0.7521 1.956,-1.4248 z m -4.364,0.3439 h -2.9103 v -5.4073 h 2.9103 c 1.085,0 1.912,0.2319 2.483,0.6957 0.57,0.4639 0.856,1.1303 0.856,1.9993 0,0.8699 -0.286,1.5394 -0.856,2.0086 -0.571,0.4691 -1.398,0.7037 -2.483,0.7037 z"
       fill="#FFC845"
       id="path18" />
    <path
       d="m 112.953,33.8457 -5.425,12.0168 h 1.763 l 1.318,-3.0042 h 6.367 l 1.317,3.0042 h 1.798 l -5.449,-12.0168 z m -1.745,7.6385 2.584,-5.8872 2.585,5.8872 z"
       fill="#FFC845"
       id="path20" />
    <path
       d="m 129.41,40.7848 c -0.385,-0.4405 -0.869,-0.782 -1.413,-0.9957 -0.708,-0.2668 -1.434,-0.485 -2.173,-0.653 -0.558,-0.1218 -1.109,-0.2735 -1.652,-0.4545 -0.377,-0.1267 -0.724,-0.3315 -1.018,-0.6012 -0.135,-0.1282 -0.242,-0.2841 -0.313,-0.4572 -0.071,-0.1731 -0.104,-0.3594 -0.097,-0.5464 -0.003,-0.2716 0.062,-0.5396 0.189,-0.7795 0.127,-0.24 0.312,-0.4444 0.538,-0.5946 0.485,-0.3554 1.213,-0.5332 2.182,-0.5332 0.568,0.0035 1.133,0.0874 1.677,0.2493 0.568,0.1653 1.11,0.4108 1.609,0.729 l 0.565,-1.3728 c -0.537,-0.3639 -1.134,-0.6305 -1.763,-0.7877 -0.681,-0.1834 -1.383,-0.2762 -2.088,-0.2759 -1.015,0 -1.866,0.1546 -2.55,0.4639 -0.619,0.2556 -1.151,0.6845 -1.533,1.2355 -0.335,0.5146 -0.511,1.1178 -0.503,1.7327 0,0.7668 0.196,1.3763 0.59,1.8286 0.384,0.4459 0.872,0.7904 1.42,1.0036 0.713,0.2659 1.442,0.4841 2.183,0.6531 0.719,0.1706 1.275,0.3248 1.669,0.4625 0.369,0.1227 0.708,0.3251 0.991,0.5931 0.133,0.1298 0.237,0.2863 0.306,0.4592 0.069,0.173 0.1,0.3585 0.093,0.5444 0.003,0.2692 -0.063,0.5345 -0.192,0.7704 -0.13,0.2359 -0.318,0.4342 -0.546,0.5758 -0.49,0.3377 -1.231,0.5065 -2.224,0.5065 -0.75,3e-4 -1.495,-0.1305 -2.2,-0.3865 -0.644,-0.2174 -1.24,-0.5583 -1.754,-1.0037 l -0.633,1.3329 c 0.479,0.4442 1.137,0.8077 1.976,1.0902 0.842,0.2815 1.724,0.4237 2.611,0.4212 1.015,0 1.871,-0.1519 2.567,-0.4558 0.697,-0.3039 1.216,-0.7158 1.558,-1.2356 0.338,-0.5106 0.517,-1.1113 0.513,-1.7246 0.003,-0.7518 -0.192,-1.3498 -0.585,-1.794 z"
       fill="#FFC845"
       id="path22" />
    <path
       d="m 31.5936,16.2021 c 2e-4,1.8601 -0.365,3.702 -1.0747,5.4205 -0.7096,1.7186 -1.7499,3.2801 -3.0614,4.5953 -1.3115,1.3153 -2.8684,2.3586 -4.582,3.0704 -1.7136,0.7117 -3.5501,1.078 -5.4048,1.0778 H 3.34768 V 17.355 L 8.7154,11.9717 9.89021,10.7961 v 14.208 h 6.50129 c 2.3238,0 4.5525,-0.9258 6.1956,-2.5738 1.6432,-1.6479 2.5663,-3.883 2.5663,-6.2136 0,-2.3305 -0.9231,-4.5656 -2.5663,-6.2136 C 20.944,8.3552 18.7153,7.42939 16.3915,7.42939 H 0 v -5.3913 h 17.157 c 0.1024,0 0.206,0 0.3083,0 1.8551,-7e-4 3.6922,0.36514 5.4063,1.07664 1.7141,0.71149 3.2716,1.75469 4.5836,3.07001 1.312,1.31532 2.3528,2.87698 3.0629,4.59576 0.7101,1.7188 1.0755,3.5611 1.0755,5.4216 z"
       fill="#FCFCFC"
       id="path24" />
    <path
       d="M 61.1779,20.3215 V 30.3617 H 54.638 V 20.2415 L 43.6992,2.02441 h 6.9426 L 58.1904,14.6143 65.7389,2.02441 h 6.4243 z"
       fill="#FFC845"
       id="path26" />
    <path
       d="M 130,2.02441 V 30.3617 h -5.368 L 110.544,13.1562 v 17.2055 h -6.459 V 2.02441 h 5.409 L 123.541,19.2299 V 2.02441 Z"
       fill="#FFC845"
       id="path28" />
    <path
       d="M 38.487,0 H 34.4775 V 12.6032 H 38.487"
       fill="#FFC845"
       id="path30" />
    <path
       d="M 94.2772,30.3617 85.2349,8.46066 76.1527,30.3617 H 69.4521 L 82.0467,2.02441 h 6.4575 L 101.139,30.3617 Z"
       fill="#FFC845"
       id="path32" />
  </g>
  <defs
     id="defs39">
    <clipPath
       id="clip0">
      <rect
         width="130"
         height="46"
         fill="#ffffff"
         id="rect36"
         x="0"
         y="0" />
    </clipPath>
  </defs>
</svg>
