<?xml version="1.0" encoding="UTF-8" standalone="no"?>
<svg
   xmlns:dc="http://purl.org/dc/elements/1.1/"
   xmlns:cc="http://creativecommons.org/ns#"
   xmlns:rdf="http://www.w3.org/1999/02/22-rdf-syntax-ns#"
   xmlns:svg="http://www.w3.org/2000/svg"
   xmlns="http://www.w3.org/2000/svg"
   xmlns:sodipodi="http://sodipodi.sourceforge.net/DTD/sodipodi-0.dtd"
   xmlns:inkscape="http://www.inkscape.org/namespaces/inkscape"
   viewBox="0 0 38.487 30.3661"
   fill="none"
   version="1.1"
   id="svg41"
   sodipodi:docname="logo-small.svg"
   width="38.487"
   height="30.3661"
   inkscape:version="1.0.2-2 (e86c870879, 2021-01-15)">
  <metadata
     id="metadata45">
    <rdf:RDF>
      <cc:Work
         rdf:about="">
        <dc:format>image/svg+xml</dc:format>
        <dc:type
           rdf:resource="http://purl.org/dc/dcmitype/StillImage" />
        <dc:title></dc:title>
      </cc:Work>
    </rdf:RDF>
  </metadata>
  <sodipodi:namedview
     pagecolor="#ffffff"
     bordercolor="#666666"
     borderopacity="1"
     objecttolerance="10"
     gridtolerance="10"
     guidetolerance="10"
     inkscape:pageopacity="0"
     inkscape:pageshadow="2"
     inkscape:window-width="1280"
     inkscape:window-height="737"
     id="namedview43"
     showgrid="false"
     fit-margin-top="0"
     fit-margin-left="0"
     fit-margin-right="0"
     fit-margin-bottom="0"
     inkscape:zoom="8.1615385"
     inkscape:cx="68.892403"
     inkscape:cy="23"
     inkscape:window-x="-8"
     inkscape:window-y="-8"
     inkscape:window-maximized="1"
     inkscape:current-layer="g34"
     inkscape:document-rotation="0" />
  <g
     clip-path="url(#clip0)"
     id="g34">
    <path
       d="m 31.5936,16.2021 c 2e-4,1.8601 -0.365,3.702 -1.0747,5.4205 -0.7096,1.7186 -1.7499,3.2801 -3.0614,4.5953 -1.3115,1.3153 -2.8684,2.3586 -4.582,3.0704 -1.7136,0.7117 -3.5501,1.078 -5.4048,1.0778 H 3.34768 V 17.355 L 8.7154,11.9717 9.89021,10.7961 v 14.208 h 6.50129 c 2.3238,0 4.5525,-0.9258 6.1956,-2.5738 1.6432,-1.6479 2.5663,-3.883 2.5663,-6.2136 0,-2.3305 -0.9231,-4.5656 -2.5663,-6.2136 C 20.944,8.3552 18.7153,7.42939 16.3915,7.42939 H 0 v -5.3913 h 17.157 c 0.1024,0 0.206,0 0.3083,0 1.8551,-7e-4 3.6922,0.36514 5.4063,1.07664 1.7141,0.71149 3.2716,1.75469 4.5836,3.07001 1.312,1.31532 2.3528,2.87698 3.0629,4.59576 0.7101,1.7188 1.0755,3.5611 1.0755,5.4216 z"
       fill="#FFC845"
       id="path24" />
    <path
       d="M 38.487,0 H 34.4775 V 12.6032 H 38.487"
       fill="#071A52"
       id="path30" />
  </g>
  <defs
     id="defs39">
    <clipPath
       id="clip0">
      <rect
         width="130"
         height="46"
         fill="#ffffff"
         id="rect36"
         x="0"
         y="0" />
    </clipPath>
  </defs>
</svg>
