<svg width="14" height="14" fill="none" xmlns="http://www.w3.org/2000/svg"><path d="M10.838 7.582a.736.736 0 00-1.042 0L8.622 8.756c-.545-.162-1.56-.53-2.204-1.174-.644-.644-1.012-1.66-1.175-2.204l1.175-1.174a.736.736 0 000-1.042L3.47.216a.736.736 0 00-1.041 0L.432 2.213c-.28.28-.438.665-.432 1.057.017 1.05.295 4.693 3.166 7.564 2.872 2.871 6.515 3.148 7.565 3.166h.02c.39 0 .757-.153 1.035-.432l1.998-1.997a.736.736 0 000-1.042l-2.947-2.947zm-.094 4.944c-.92-.015-4.065-.262-6.536-2.734-2.48-2.48-2.72-5.636-2.735-6.537L2.95 1.778l1.905 1.905-.952.952a.736.736 0 00-.2.672c.017.085.45 2.094 1.672 3.316 1.223 1.223 3.232 1.656 3.317 1.673a.73.73 0 00.671-.2l.954-.952 1.905 1.905-1.478 1.477z" fill="#FFC845"/></svg>