<svg xmlns="http://www.w3.org/2000/svg" viewBox="0 0 978.2 345.13"><defs><style>.cls-1{fill:#071a52}</style></defs><g id="Capa_2" data-name="Capa 2"><g id="Capa_1-2" data-name="Capa 1"><path class="cls-1" d="M90.61 332.89v11.21H25.19v-90.16h63.62v11.21H38.07v27.69h45.21v10.95H38.07v29.1h52.54zm27.5 9.11q-9.47-3.15-14.87-8.18l4.76-10a39.45 39.45 0 0013.2 7.53 48.56 48.56 0 0016.55 2.9q11.2 0 16.74-3.8a11.71 11.71 0 005.51-10.18 9.94 9.94 0 00-3-7.53 20.05 20.05 0 00-7.46-4.45q-4.46-1.55-12.56-3.47a128.7 128.7 0 01-16.42-4.9 27.09 27.09 0 01-10.69-7.53q-4.44-5.08-4.44-13.72a23.24 23.24 0 013.79-13 26.19 26.19 0 0111.53-9.27q7.73-3.48 19.19-3.48a60.46 60.46 0 0115.71 2.08 41.75 41.75 0 0113.27 5.92l-4.25 10.3a47 47 0 00-12.11-5.47 45.35 45.35 0 00-12.62-1.87q-11 0-16.42 4a12.24 12.24 0 00-5.47 10.31 9.85 9.85 0 003.09 7.53 21.39 21.39 0 007.66 4.51 120.16 120.16 0 0012.43 3.41 125.72 125.72 0 0116.35 4.9 27.44 27.44 0 0110.63 7.46q4.44 5 4.44 13.52a23.06 23.06 0 01-3.86 12.94q-3.87 5.87-11.72 9.27t-19.32 3.42a61.53 61.53 0 01-19.64-3.15zm89.96-76.85h-30.91v-11.21h74.57v11.21h-30.91v78.95h-12.75v-78.95zm125.31 37.99q5.14-7.33 5.15-17.77 0-14.69-10-23.05t-27.56-8.38h-35.21v90.16h12.88v-27.44h22.28c1.37 0 3.26-.08 5.67-.25L326 344.1h14l-21.38-30.27a29.13 29.13 0 0014.76-10.69zm-32.85 2.58h-21.89v-40.57h21.89q12.24 0 18.68 5.22t6.44 15q0 9.79-6.44 15.07t-18.68 5.28zm121.84-1.03q0 14.67-6.57 21.83t-18.93 7.14q-25.38 0-25.38-29v-50.72h-12.87v51.26q0 19.32 10 29.62t28.08 10.31q18 0 28.07-10.24t10.05-29.69v-51.26h-12.45zm61.68-35.81a36.8 36.8 0 0118.16-4.5 33.57 33.57 0 0125.37 10.69L536 267a39.56 39.56 0 00-15-10.54 51.1 51.1 0 00-19.31-3.55 50.13 50.13 0 00-24.47 6 44 44 0 00-17.13 16.49 48.27 48.27 0 000 47.26 44.06 44.06 0 0017.06 16.49 49.82 49.82 0 0024.41 6 50.82 50.82 0 0019.44-3.63A40 40 0 00536 331l-8.37-8.11a33.65 33.65 0 01-25.37 10.81 36.8 36.8 0 01-18.16-4.5 32.65 32.65 0 01-12.68-12.43 36.6 36.6 0 010-35.42 32.65 32.65 0 0112.63-12.47zm56.28-3.73h30.91v78.95h12.75v-78.95h30.91v-11.21h-74.57v11.21zm149.91 39.54q0 14.67-6.57 21.83t-18.93 7.14q-25.37 0-25.37-29v-50.72h-12.88v51.26q0 19.32 10 29.62t28.07 10.31q18 0 28.08-10.24t10-29.69v-51.26h-12.4zm106.5-1.55q5.16-7.33 5.16-17.77 0-14.69-10-23.05t-27.56-8.38h-35.21v90.16H742v-27.44h22.28c1.37 0 3.26-.08 5.67-.25l19.45 27.69h14l-21.38-30.27a29.06 29.06 0 0014.72-10.69zm-32.84 2.58H742v-40.57h21.9q12.24 0 18.68 5.22t6.44 15q0 9.79-6.44 15.07t-18.68 5.28zm86.03-51.78l-40.82 90.16h13.26l9.92-22.54h47.91l9.91 22.54h13.53l-41-90.16zm-13.13 57.31l19.44-44.17 19.45 44.17zM973.76 306a27.44 27.44 0 00-10.63-7.47 125.72 125.72 0 00-16.35-4.9 120.16 120.16 0 01-12.43-3.41 21.39 21.39 0 01-7.66-4.51 9.85 9.85 0 01-3.09-7.53 12.24 12.24 0 015.47-10.31q5.48-4 16.42-4a45.35 45.35 0 0112.62 1.87 47 47 0 0112.11 5.47l4.25-10.3A41.75 41.75 0 00961.2 255a60.46 60.46 0 00-15.71-2.07q-11.46 0-19.19 3.48a26.19 26.19 0 00-11.53 9.27 23.24 23.24 0 00-3.79 13q0 8.63 4.44 13.72a27.09 27.09 0 0010.69 7.53 129.21 129.21 0 0016.42 4.9q8.12 1.92 12.56 3.47a20.05 20.05 0 017.46 4.45 9.94 9.94 0 013 7.53 11.71 11.71 0 01-5.55 10.1q-5.53 3.8-16.74 3.8a48.56 48.56 0 01-16.55-2.9 39.45 39.45 0 01-13.2-7.53l-4.76 10q5.4 5 14.87 8.18a61.53 61.53 0 0019.64 3.16q11.46 0 19.32-3.42t11.72-9.27a23.06 23.06 0 003.86-12.94q.04-8.46-4.4-13.46z"/><path d="M237.73 121.56a106.26 106.26 0 01-106.27 106.27H25.19v-97.62l40.39-40.39L74.42 81v106.6h48.92a65.93 65.93 0 100-131.86H0V15.29h131.42a106.27 106.27 0 01106.31 106.27z" fill="#f58634"/><path class="cls-1" d="M460.34 152.47v75.33h-49.21v-75.93L328.82 15.19h52.24l56.8 94.46 56.8-94.46H543zM978.2 15.19V227.8h-40.39L831.8 98.71V227.8h-48.6V15.19h40.7l105.7 129.09V15.19zM289.6 0h-30.17v94.56h30.17M709.4 227.8L641.36 63.48 573.02 227.8H522.6l94.77-212.61h48.59l95.07 212.61H709.4z"/></g></g></svg>