<?xml version="1.0" encoding="UTF-8"?>
<svg width="374px" height="150px" viewBox="0 0 374 150" version="1.1" xmlns="http://www.w3.org/2000/svg" xmlns:xlink="http://www.w3.org/1999/xlink">
    <!-- Generator: Sketch 55.2 (78181) - https://sketchapp.com -->
    <title>Artboard Copy 9</title>
    <desc>Created with Sketch.</desc>
    <defs>
        <path d="M111.888,73.152 L92.736,97.92 L0,97.92 L0,1.584 L111.6,1.584 L92.304,26.64 L29.952,26.64 L29.952,38.16 L106.272,38.16 L89.136,60.048 L29.952,60.048 L29.952,73.152 L111.888,73.152 Z M241.776,1.584 L222.48,26.64 L188.064,26.64 L188.064,97.92 L158.256,97.92 L158.256,26.64 L113.04,26.64 L132.336,1.584 L241.776,1.584 Z M261.216,97.92 L279.216,73.152 L312.408,73.152 C315.528016,73.152 318.239988,73.247999 320.544,73.44 C319.199993,71.7119914 317.640009,69.5280132 315.864,66.888 C314.087991,64.2479868 312.384008,61.7760115 310.752,59.472 L293.472,33.984 L248.256,97.92 L212.976,97.92 L274.752,10.8 C276.76801,8.01598608 279.311985,5.52001104 282.384,3.312 C285.456015,1.10398896 289.343976,0 294.048,0 C298.560023,0 302.327985,1.03198968 305.352,3.096 C308.376015,5.16001032 310.943989,7.72798464 313.056,10.8 L373.248,97.92 L261.216,97.92 Z" id="path-1"></path>
    </defs>
    <g id="Artboard-Copy-9" stroke="none" stroke-width="1" fill="none" fill-rule="evenodd">
        <g id="Group">
            <mask id="mask-2" fill="white">
                <use xlink:href="#path-1"></use>
            </mask>
            <use id="Mask" fill="#0050A5" fill-rule="nonzero" xlink:href="#path-1"></use>
            <rect id="Rectangle-Copy-5" fill="#FFE200" mask="url(#mask-2)" x="0" y="26.5" width="369" height="6.5"></rect>
            <rect id="Rectangle-Copy-7" fill="#FFE200" mask="url(#mask-2)" x="0" y="36.5" width="369" height="6.5"></rect>
            <rect id="Rectangle-Copy-8" fill="#FFE200" mask="url(#mask-2)" x="0" y="46.5" width="369" height="6.5"></rect>
            <rect id="Rectangle-Copy-9" fill="#FFE200" mask="url(#mask-2)" x="0" y="56.5" width="369" height="6.5"></rect>
            <rect id="Rectangle-Copy-6" fill="#FFE200" mask="url(#mask-2)" x="0" y="66.5" width="369" height="7"></rect>
        </g>
        <path d="M26.024,149.624 L24.056,149.624 C21.2079858,149.624 18.6000118,149.400002 16.232,148.952 C13.8639882,148.503998 11.8720081,147.920004 10.256,147.2 C8.63999192,146.479996 7.20800624,145.608005 5.96,144.584 C4.71199376,143.559995 3.73600352,142.520005 3.032,141.464 C2.32799648,140.407995 1.74400232,139.272006 1.28,138.056 C0.81599768,136.839994 0.51200072,135.736005 0.368,134.744 C0.22399928,133.751995 0.152,132.744005 0.152,131.72 L0.152,130.328 C0.152,128.823992 0.29599856,127.376007 0.584,125.984 C0.87200144,124.591993 1.51999496,123.048008 2.528,121.352 C3.53600504,119.655992 4.86399176,118.200006 6.512,116.984 C8.16000824,115.767994 10.4959849,114.744004 13.52,113.912 C16.5440151,113.079996 20.05598,112.664 24.056,112.664 L26.024,112.664 C29.3200165,112.664 32.2959867,112.911998 34.952,113.408 C37.6080133,113.904002 39.7679917,114.567996 41.432,115.4 C43.0960083,116.232004 44.5199941,117.135995 45.704,118.112 C46.8880059,119.088005 47.7679971,120.135994 48.344,121.256 C48.9200029,122.376006 49.3279988,123.367996 49.568,124.232 C49.8080012,125.096004 49.928,125.927996 49.928,126.728 L49.928,127.256 L38.072,127.256 C37.9439994,126.871998 37.8160006,126.528002 37.688,126.224 C37.5599994,125.919998 37.200003,125.432003 36.608,124.76 C36.015997,124.087997 35.2960042,123.528002 34.448,123.08 C33.5999958,122.631998 32.3520082,122.224002 30.704,121.856 C29.0559918,121.487998 27.1600107,121.304 25.016,121.304 C22.4559872,121.304 20.272009,121.567997 18.464,122.096 C16.655991,122.624003 15.2960046,123.351995 14.384,124.28 C13.4719954,125.208005 12.8240019,126.183995 12.44,127.208 C12.0559981,128.232005 11.864,129.351994 11.864,130.568 L11.864,131.144 C11.864,132.296006 12.0799978,133.399995 12.512,134.456 C12.9440022,135.512005 13.6239954,136.551995 14.552,137.576 C15.4800046,138.600005 16.8559909,139.415997 18.68,140.024 C20.5040091,140.632003 22.6479877,140.936 25.112,140.936 C32.5360371,140.936 36.8719938,138.824021 38.12,134.6 L49.976,134.6 L49.976,135.128 C49.976,135.992004 49.8480013,136.879995 49.592,137.792 C49.3359987,138.704005 48.912003,139.735994 48.32,140.888 C47.727997,142.040006 46.832006,143.111995 45.632,144.104 C44.431994,145.096005 43.0000083,146.015996 41.336,146.864 C39.6719917,147.712004 37.5200132,148.383998 34.88,148.88 C32.2399868,149.376002 29.2880163,149.624 26.024,149.624 Z M80.0572308,112.664 L82.1212308,112.664 C85.2252463,112.664 88.0412181,112.879998 90.5692308,113.312 C93.0972434,113.744002 95.2172222,114.311996 96.9292308,115.016 C98.6412393,115.720004 100.137224,116.583995 101.417231,117.608 C102.697237,118.632005 103.697227,119.655995 104.417231,120.68 C105.137234,121.704005 105.721229,122.823994 106.169231,124.04 C106.617233,125.256006 106.905231,126.343995 107.033231,127.304 C107.161231,128.264005 107.225231,129.271995 107.225231,130.328 L107.225231,131.768 C107.225231,132.792005 107.161231,133.783995 107.033231,134.744 C106.905231,135.704005 106.617233,136.799994 106.169231,138.032 C105.721229,139.264006 105.145234,140.399995 104.441231,141.44 C103.737227,142.480005 102.737237,143.519995 101.441231,144.56 C100.145224,145.600005 98.6492392,146.479996 96.9532308,147.2 C95.2572223,147.920004 93.1372435,148.503998 90.5932308,148.952 C88.049218,149.400002 85.2252463,149.624 82.1212308,149.624 L80.0572308,149.624 C76.9532152,149.624 74.1212436,149.400002 71.5612308,148.952 C69.001218,148.503998 66.8732392,147.920004 65.1772308,147.2 C63.4812223,146.479996 61.9852372,145.600005 60.6892308,144.56 C59.3932243,143.519995 58.3852344,142.480005 57.6652308,141.44 C56.9452272,140.399995 56.3692329,139.264006 55.9372308,138.032 C55.5052286,136.799994 55.2252314,135.704005 55.0972308,134.744 C54.9692301,133.783995 54.9052308,132.792005 54.9052308,131.768 L54.9052308,130.328 C54.9052308,129.271995 54.9692301,128.272005 55.0972308,127.328 C55.2252314,126.383995 55.5052286,125.296006 55.9372308,124.064 C56.3692329,122.831994 56.9452272,121.704005 57.6652308,120.68 C58.3852344,119.655995 59.3852244,118.632005 60.6652308,117.608 C61.9452372,116.583995 63.4412222,115.720004 65.1532308,115.016 C66.8652393,114.311996 69.001218,113.744002 71.5612308,113.312 C74.1212436,112.879998 76.9532152,112.664 80.0572308,112.664 Z M95.5132308,130.664 C95.5132308,129.767996 95.4012319,128.912004 95.1772308,128.096 C94.9532296,127.279996 94.521234,126.448004 93.8812308,125.6 C93.2412276,124.751996 92.4092359,124.024003 91.3852308,123.416 C90.3612256,122.807997 88.9612396,122.304 87.1852308,121.904 C85.4092219,121.503998 83.3692423,121.304 81.0652308,121.304 C71.4331826,121.304 66.6172308,124.423969 66.6172308,130.664 L66.6172308,131.24 C66.6172308,132.392006 66.8172288,133.479995 67.2172308,134.504 C67.6172308,135.528005 68.3052259,136.551995 69.2812308,137.576 C70.2572356,138.600005 71.7532207,139.415997 73.7692308,140.024 C75.7852408,140.632003 78.2172165,140.936 81.0652308,140.936 C83.913245,140.936 86.3372208,140.640003 88.3372308,140.048 C90.3372408,139.455997 91.8332258,138.656005 92.8252308,137.648 C93.8172357,136.639995 94.5132288,135.624005 94.9132308,134.6 C95.3132328,133.575995 95.5132308,132.488006 95.5132308,131.336 L95.5132308,130.664 Z M113.738462,149 L113.738462,113.288 L129.626462,113.288 L141.962462,135.512 L154.346462,113.288 L169.658462,113.288 L169.658462,149 L158.618462,149 L158.618462,124.28 L144.554462,149 L138.554462,149 L124.490462,124.28 L124.490462,149 L113.738462,149 Z M204.395692,137.096 L188.795692,137.096 L188.795692,149 L177.611692,149 L177.611692,113.288 L204.395692,113.288 C215.499748,113.288 221.051692,117.159961 221.051692,124.904 L221.051692,125.384 C221.051692,133.192039 215.499748,137.096 204.395692,137.096 Z M188.795692,121.4 L188.795692,129.08 L204.203692,129.08 C207.65971,129.08 209.387692,127.832012 209.387692,125.336 L209.387692,125.192 C209.387692,122.663987 207.65971,121.4 204.203692,121.4 L188.795692,121.4 Z M250.076923,134.408 L243.164923,121.016 L236.540923,134.408 L250.076923,134.408 Z M257.564923,149 L254.204923,142.472 L232.556923,142.472 L229.340923,149 L217.964923,149 L236.012923,113.288 L250.508923,113.288 L269.612923,149 L257.564923,149 Z M274.062154,113.288 L286.542154,113.288 L309.342154,135.752 L309.342154,113.288 L320.382154,113.288 L320.382154,149 L309.342154,149 L285.102154,125.336 L285.102154,149 L274.062154,149 L274.062154,113.288 Z M343.647385,149 L343.647385,135.176 L324.543385,113.288 L338.415385,113.288 L349.503385,126.44 L360.783385,113.288 L373.407385,113.288 L354.831385,135.176 L354.831385,149 L343.647385,149 Z" id="COMPANY" fill="#34B8E1" fill-rule="nonzero"></path>
    </g>
</svg>