<?xml version="1.0" encoding="UTF-8"?>
<svg width="420px" height="150px" viewBox="0 0 420 150" version="1.1" xmlns="http://www.w3.org/2000/svg" xmlns:xlink="http://www.w3.org/1999/xlink">
    <!-- Generator: Sketch 55.2 (78181) - https://sketchapp.com -->
    <title>Artboard Copy 16</title>
    <desc>Created with Sketch.</desc>
    <g id="Artboard-Copy-16" stroke="none" stroke-width="1" fill="none" fill-rule="evenodd">
        <g id="Group" transform="translate(0.000000, 24.000000)">
            <path d="M20.064,14.208 L37.584,14.208 L37.584,14.496 C37.584,18.816 36.624,24.672 32.304,28.944 C28.32,32.88 23.76,33.648 19.488,33.648 C15.024,33.648 10.8,32.832 6.96,29.04 C4.704,26.832 2.256,23.184 2.256,17.616 C2.256,12.864 4.08,8.448 7.152,5.328 C9.216,3.216 13.632,6.75015599e-14 21.264,6.75015599e-14 C28.08,6.75015599e-14 33.168,2.448 36.576,8.112 L25.68,12.384 C25.152,11.328 23.952,9.696 21.408,9.696 C19.44,9.696 17.712,10.416 16.512,11.52 C14.976,12.96 13.872,15.36 13.872,18.096 C13.872,20.16 14.544,21.792 15.696,22.992 C16.992,24.336 18.48,24.72 20.208,24.72 C21.456,24.72 24.288,24.432 25.344,21.216 L19.104,21.216 L20.064,14.208 Z M44.544,0.816 L56.304,0.816 L53.568,23.184 L63.408,22.896 L62.208,32.832 L40.608,32.832 L44.544,0.816 Z M96.576,4.464 C100.08,7.344 101.904,11.52 101.904,16.56 C101.904,26.256 94.368,33.648 84.384,33.648 C74.256,33.648 66.48,26.544 66.48,17.28 C66.48,7.584 74.256,0.048 84.144,0.048 C88.752,0.048 93.216,1.632 96.576,4.464 Z M83.856,23.568 C87.504,23.568 90.192,20.64 90.192,16.752 C90.192,13.344 87.744,10.656 84.528,10.656 C81.024,10.656 78.192,13.68 78.192,17.376 C78.192,20.928 80.592,23.568 83.856,23.568 Z M128.4,16.128 L128.448,16.416 C131.808,17.136 133.68,19.632 133.68,23.28 C133.68,28.944 129.072,32.832 122.784,32.832 L104.832,32.832 L108.768,0.816 L123.12,0.816 C128.256,0.816 131.328,2.304 132.912,5.52 C133.44,6.672 133.728,7.968 133.728,8.976 C133.728,12.768 131.808,15.36 128.4,16.128 Z M120.576,8.496 L118.944,8.496 L118.368,13.104 L119.376,13.104 C121.872,13.104 122.976,12.384 122.976,10.608 C122.976,9.168 122.112,8.496 120.576,8.496 Z M119.52,19.824 L117.552,19.824 L116.88,25.344 L117.648,25.344 C121.056,25.344 122.544,24.48 122.544,22.032 C122.544,20.496 121.632,19.824 119.52,19.824 Z M156.192,28.56 L148.32,28.56 L146.784,32.832 L134.304,32.832 L149.088,0.816 L162.336,0.816 L168.288,32.832 L156.432,32.832 L156.192,28.56 Z M153.168,15.456 L151.008,21.264 L155.424,21.264 L154.944,15.456 C154.896,14.928 154.848,14.112 154.848,13.2 C154.848,12.048 154.896,11.712 154.992,10.656 L154.608,10.656 C154.176,12.528 153.888,13.584 153.168,15.456 Z M175.44,0.816 L187.2,0.816 L184.464,23.184 L194.304,22.896 L193.104,32.832 L171.504,32.832 L175.44,0.816 Z M231.696,16.128 L231.744,16.416 C235.104,17.136 236.976,19.632 236.976,23.28 C236.976,28.944 232.368,32.832 226.08,32.832 L208.128,32.832 L212.064,0.816 L226.416,0.816 C231.552,0.816 234.624,2.304 236.208,5.52 C236.736,6.672 237.024,7.968 237.024,8.976 C237.024,12.768 235.104,15.36 231.696,16.128 Z M223.872,8.496 L222.24,8.496 L221.664,13.104 L222.672,13.104 C225.168,13.104 226.272,12.384 226.272,10.608 C226.272,9.168 225.408,8.496 223.872,8.496 Z M222.816,19.824 L220.848,19.824 L220.176,25.344 L220.944,25.344 C224.352,25.344 225.84,24.48 225.84,22.032 C225.84,20.496 224.928,19.824 222.816,19.824 Z M262.944,0.816 L274.704,0.816 L272.544,18.528 C271.68,25.344 270.912,27.312 268.08,29.904 C265.248,32.448 261.792,33.648 257.232,33.648 C252.576,33.648 248.688,32.448 245.904,30.192 C243.36,28.128 242.304,25.632 242.304,21.792 C242.304,20.928 242.352,20.112 242.448,19.248 L244.752,0.816 L256.512,0.816 L254.352,18.528 C254.208,19.68 254.112,20.496 254.112,20.88 C254.112,22.8 255.168,23.856 256.992,23.856 C259.2,23.856 260.256,22.464 260.736,18.96 L262.944,0.816 Z M281.136,0.816 L292.896,0.816 L288.96,32.832 L277.2,32.832 L281.136,0.816 Z M299.328,0.816 L311.088,0.816 L308.352,23.184 L318.192,22.896 L316.992,32.832 L295.392,32.832 L299.328,0.816 Z M320.832,32.832 L324.768,0.816 L335.616,0.816 C346.896,0.816 353.616,6.624 353.616,16.32 C353.616,21.408 351.504,25.968 347.76,28.944 C344.208,31.776 340.368,32.832 333.648,32.832 L320.832,32.832 Z M336.624,10.224 L335.184,10.224 L333.6,23.328 L335.232,23.328 C339.072,23.328 342.144,20.112 342.144,16.032 C342.144,12.672 339.792,10.224 336.624,10.224 Z M360.48,0.816 L381.504,0.816 L380.496,9.168 L371.04,9.168 L370.608,12.672 L379.248,12.672 L378.288,20.592 L369.648,20.592 L369.216,24.24 L379.008,24.24 L377.952,32.832 L356.544,32.832 L360.48,0.816 Z M410.16,18.432 C408.72,19.584 407.808,19.968 405.408,20.304 L412.368,32.832 L399.792,32.832 L396.912,25.104 C396.432,23.76 395.904,22.032 395.664,20.832 L395.328,20.88 C395.376,21.936 395.376,22.368 395.376,23.232 C395.376,24.672 395.28,26.256 395.136,27.456 L394.512,32.832 L382.896,32.832 L386.832,0.816 L399.552,0.816 C404.784,0.816 407.232,1.488 409.632,3.408 C411.984,5.376 413.376,8.352 413.376,11.376 C413.376,14.16 412.176,16.8 410.16,18.432 Z M398.304,9.408 L397.392,9.408 L396.672,15.168 L397.632,15.168 C400.32,15.168 402,13.92 402,12 C402,10.224 400.848,9.408 398.304,9.408 Z" id="GLOBALBUILDER" fill="#333333" fill-rule="nonzero"></path>
            <path d="M19.92,67.048 C22.704,67.048 25.44,67.528 28.224,68.536 L27.264,79.912 C25.104,78.184 23.136,77.416 20.88,77.416 C17.04,77.416 13.824,80.68 13.824,84.52 C13.824,87.784 16.512,90.28 20.016,90.28 C22.416,90.28 24.336,89.416 26.304,87.544 L24.912,99.208 C21.792,100.264 19.92,100.648 17.616,100.648 C8.736,100.648 2.256,93.928 2.256,84.76 C2.256,74.584 9.792,67.048 19.92,67.048 Z M65.112,71.464 C68.616,74.344 70.44,78.52 70.44,83.56 C70.44,93.256 62.904,100.648 52.92,100.648 C42.792,100.648 35.016,93.544 35.016,84.28 C35.016,74.584 42.792,67.048 52.68,67.048 C57.288,67.048 61.752,68.632 65.112,71.464 Z M52.392,90.568 C56.04,90.568 58.728,87.64 58.728,83.752 C58.728,80.344 56.28,77.656 53.064,77.656 C49.56,77.656 46.728,80.68 46.728,84.376 C46.728,87.928 49.128,90.568 52.392,90.568 Z M101.088,67.816 L112.848,67.816 L108.912,99.832 L97.68,99.832 L92.112,88.792 C90.96,86.44 90.24,84.616 89.568,82.312 L89.376,81.736 L88.992,81.736 C89.136,83.176 89.184,84.232 89.184,85.576 C89.184,86.824 89.136,87.976 89.04,88.792 L88.032,99.832 L76.368,99.832 L80.304,67.816 L91.968,67.816 L97.632,79.864 C98.352,81.4 98.88,82.792 99.648,85.528 L99.936,86.584 L100.416,86.536 L100.32,85.48 C100.176,83.704 100.08,82.408 100.08,81.064 C100.08,79.768 100.128,78.52 100.272,77.272 L101.088,67.816 Z M143.16,69.304 C143.64,69.544 144.312,69.88 145.176,70.36 L140.904,78.856 C138.888,77.032 136.392,75.976 133.896,75.976 C132.648,75.976 131.688,76.696 131.688,77.656 C131.688,78.664 132.264,79 135.192,79.72 C137.4,80.296 139.224,81.016 140.376,81.832 C142.536,83.272 143.88,86.056 143.88,88.984 C143.88,95.416 137.64,100.648 129.912,100.648 C126.936,100.648 123.336,99.784 120.216,98.344 C119.544,98.008 118.536,97.528 117.24,96.808 L121.56,88.168 C123.48,90.52 126.552,91.96 129.576,91.96 C131.208,91.96 132.264,91.24 132.264,90.088 C132.264,88.984 131.352,88.312 129.24,87.832 C127.032,87.4 125.832,87.016 124.68,86.392 C121.656,84.904 120.072,82.216 120.072,78.52 C120.072,72.136 125.928,67.048 133.224,67.048 C136.488,67.048 139.944,67.816 143.16,69.304 Z M151.488,67.816 L174.336,67.816 L173.088,77.896 L167.568,77.56 L164.832,99.832 L153.072,99.832 L155.808,77.56 L150.288,77.896 L151.488,67.816 Z M204.216,85.432 C202.776,86.584 201.864,86.968 199.464,87.304 L206.424,99.832 L193.848,99.832 L190.968,92.104 C190.488,90.76 189.96,89.032 189.72,87.832 L189.384,87.88 C189.432,88.936 189.432,89.368 189.432,90.232 C189.432,91.672 189.336,93.256 189.192,94.456 L188.568,99.832 L176.952,99.832 L180.888,67.816 L193.608,67.816 C198.84,67.816 201.288,68.488 203.688,70.408 C206.04,72.376 207.432,75.352 207.432,78.376 C207.432,81.16 206.232,83.8 204.216,85.432 Z M192.36,76.408 L191.448,76.408 L190.728,82.168 L191.688,82.168 C194.376,82.168 196.056,80.92 196.056,79 C196.056,77.224 194.904,76.408 192.36,76.408 Z M235.728,67.816 L247.488,67.816 L245.328,85.528 C244.464,92.344 243.696,94.312 240.864,96.904 C238.032,99.448 234.576,100.648 230.016,100.648 C225.36,100.648 221.472,99.448 218.688,97.192 C216.144,95.128 215.088,92.632 215.088,88.792 C215.088,87.928 215.136,87.112 215.232,86.248 L217.536,67.816 L229.296,67.816 L227.136,85.528 C226.992,86.68 226.896,87.496 226.896,87.88 C226.896,89.8 227.952,90.856 229.776,90.856 C231.984,90.856 233.04,89.464 233.52,85.96 L235.728,67.816 Z M271.032,67.048 C273.816,67.048 276.552,67.528 279.336,68.536 L278.376,79.912 C276.216,78.184 274.248,77.416 271.992,77.416 C268.152,77.416 264.936,80.68 264.936,84.52 C264.936,87.784 267.624,90.28 271.128,90.28 C273.528,90.28 275.448,89.416 277.416,87.544 L276.024,99.208 C272.904,100.264 271.032,100.648 268.728,100.648 C259.848,100.648 253.368,93.928 253.368,84.76 C253.368,74.584 260.904,67.048 271.032,67.048 Z M286.128,67.816 L308.976,67.816 L307.728,77.896 L302.208,77.56 L299.472,99.832 L287.712,99.832 L290.448,77.56 L284.928,77.896 L286.128,67.816 Z M315.528,67.816 L327.288,67.816 L323.352,99.832 L311.592,99.832 L315.528,67.816 Z M363.312,71.464 C366.816,74.344 368.64,78.52 368.64,83.56 C368.64,93.256 361.104,100.648 351.12,100.648 C340.992,100.648 333.216,93.544 333.216,84.28 C333.216,74.584 340.992,67.048 350.88,67.048 C355.488,67.048 359.952,68.632 363.312,71.464 Z M350.592,90.568 C354.24,90.568 356.928,87.64 356.928,83.752 C356.928,80.344 354.48,77.656 351.264,77.656 C347.76,77.656 344.928,80.68 344.928,84.376 C344.928,87.928 347.328,90.568 350.592,90.568 Z M399.288,67.816 L411.048,67.816 L407.112,99.832 L395.88,99.832 L390.312,88.792 C389.16,86.44 388.44,84.616 387.768,82.312 L387.576,81.736 L387.192,81.736 C387.336,83.176 387.384,84.232 387.384,85.576 C387.384,86.824 387.336,87.976 387.24,88.792 L386.232,99.832 L374.568,99.832 L378.504,67.816 L390.168,67.816 L395.832,79.864 C396.552,81.4 397.08,82.792 397.848,85.528 L398.136,86.584 L398.616,86.536 L398.52,85.48 C398.376,83.704 398.28,82.408 398.28,81.064 C398.28,79.768 398.328,78.52 398.472,77.272 L399.288,67.816 Z" id="CONSTRUCTION" fill="#333333" fill-rule="nonzero"></path>
            <rect id="Rectangle" fill="#FFCF2C" x="0" y="45.832" width="420" height="7"></rect>
        </g>
    </g>
</svg>