<?xml version="1.0" encoding="UTF-8"?>
<svg width="490px" height="150px" viewBox="0 0 490 150" version="1.1" xmlns="http://www.w3.org/2000/svg" xmlns:xlink="http://www.w3.org/1999/xlink">
    <!-- Generator: Sketch 55.2 (78181) - https://sketchapp.com -->
    <title>Artboard Copy 7</title>
    <desc>Created with Sketch.</desc>
    <g id="Artboard-Copy-7" stroke="none" stroke-width="1" fill="none" fill-rule="evenodd">
        <path d="M109.556349,150 L0,40.4436508 L0,0 L40.4436508,0 L150,109.556349 L150,150 L109.556349,150 Z M71.5563492,2.84217094e-14 L150,2.84217094e-14 L150,78.4436508 L71.5563492,2.84217094e-14 Z" id="Rectangle--Rectangle-Copy--Rectangle" fill="#C0D3E7"></path>
        <polygon id="Path-Copy" fill="#23307A" points="78 150 0 150 0 72 78 150"></polygon>
        <path d="M294.624,49.656 L294.624,58.584 C294.624,90.264 274.752,112.584 242.352,112.584 C210.096,112.584 186.336,91.848 186.336,57.144 C186.336,22.44 210.096,1.704 242.352,1.704 C267.408,1.704 286.848,14.664 293.472,37.992 L264.672,42.744 C261.504,32.664 254.304,26.328 242.064,26.328 C225.072,26.328 214.704,36.12 214.704,57.144 C214.704,78.168 225.072,87.96 242.064,87.96 C251.424,87.96 259.632,84.36 263.52,74.28 L242.064,74.28 L242.064,49.656 L294.624,49.656 Z M338.688,86.376 L381.456,86.376 L381.456,111 L310.896,111 L310.896,3.288 L338.688,3.288 L338.688,86.376 Z M396,3.288 L443.952,3.288 C463.968,3.288 478.512,12.936 478.512,33.96 C478.512,43.32 474.336,49.656 469.728,54.12 C476.496,57.576 482.688,65.928 482.688,78.6 C482.688,99.48 468.432,111 446.832,111 L396,111 L396,3.288 Z M423.792,27.912 L423.792,44.184 L440.496,44.184 C446.4,44.184 450.144,41.736 450.144,36.12 C450.144,30.216 446.544,27.912 440.784,27.912 L423.792,27.912 Z M423.792,67.8 L423.792,86.376 L443.52,86.376 C450.288,86.376 454.32,83.64 454.32,77.16 C454.32,70.68 450.288,67.8 443.376,67.8 L423.792,67.8 Z" id="GLB" fill="#23307A" fill-rule="nonzero"></path>
        <path d="M198.28,146.44 C201.192,146.44 202.76,145.608 202.76,144.104 C202.76,142.824 201.352,142.28 198.152,142.28 C193.096,142.28 190.92,140.936 190.92,137.704 C190.92,134.44 193.48,132.68 198.28,132.68 C202.696,132.68 205.64,134.728 205.64,137.8 L202.44,137.8 C202.44,136.456 200.776,135.56 198.28,135.56 C195.56,135.56 194.12,136.296 194.12,137.704 C194.12,138.92 195.4,139.4 198.44,139.4 C203.72,139.4 205.96,140.84 205.96,144.104 C205.96,147.496 203.272,149.32 198.28,149.32 C193.672,149.32 190.6,147.272 190.6,144.2 L193.8,144.2 C193.8,145.544 195.592,146.44 198.28,146.44 Z M225.64,135.88 L213.16,135.88 L213.16,139.56 L222.44,139.56 L222.44,142.44 L213.16,142.44 L213.16,146.12 L225.64,146.12 L225.64,149 L209.96,149 L209.96,133 L225.64,133 L225.64,135.88 Z M229.96,149 L229.96,133 L241.48,133 C244.36,133 246.28,134.92 246.28,137.8 C246.28,140.36 244.616,142.152 242.088,142.408 C242.312,142.664 242.536,142.952 242.664,143.176 L246.28,149 L242.664,149 L238.6,142.44 L233.16,142.44 L233.16,149 L229.96,149 Z M233.16,139.56 L241.48,139.56 C242.44,139.56 243.08,138.92 243.08,137.96 L243.08,137.48 C243.08,136.52 242.44,135.88 241.48,135.88 L233.16,135.88 L233.16,139.56 Z M249,133 L252.456,133 L257.832,146.12 L258.152,146.12 L263.528,133 L266.92,133 L260.36,149 L255.56,149 L249,133 Z M273.48,149 L270.28,149 L270.28,133 L273.48,133 L273.48,149 Z M285.8,146.28 C288.2,146.28 290.056,144.712 290.6,142.44 L294.024,142.44 C293.384,146.504 290.12,149.32 285.8,149.32 C281,149.32 277.48,145.8 277.48,141 C277.48,136.2 281,132.68 285.8,132.68 C290.12,132.68 293.384,135.496 294.024,139.56 L290.6,139.56 C290.056,137.256 288.2,135.72 285.8,135.72 C282.92,135.72 280.84,137.96 280.84,141 C280.84,144.04 282.92,146.28 285.8,146.28 Z M313.704,135.88 L301.224,135.88 L301.224,139.56 L310.504,139.56 L310.504,142.44 L301.224,142.44 L301.224,146.12 L313.704,146.12 L313.704,149 L298.024,149 L298.024,133 L313.704,133 L313.704,135.88 Z M324.904,146.44 C327.816,146.44 329.384,145.608 329.384,144.104 C329.384,142.824 327.976,142.28 324.776,142.28 C319.72,142.28 317.544,140.936 317.544,137.704 C317.544,134.44 320.104,132.68 324.904,132.68 C329.32,132.68 332.264,134.728 332.264,137.8 L329.064,137.8 C329.064,136.456 327.4,135.56 324.904,135.56 C322.184,135.56 320.744,136.296 320.744,137.704 C320.744,138.92 322.024,139.4 325.064,139.4 C330.344,139.4 332.584,140.84 332.584,144.104 C332.584,147.496 329.896,149.32 324.904,149.32 C320.296,149.32 317.224,147.272 317.224,144.2 L320.424,144.2 C320.424,145.544 322.216,146.44 324.904,146.44 Z M352.104,146.28 C354.504,146.28 356.36,144.712 356.904,142.44 L360.328,142.44 C359.688,146.504 356.424,149.32 352.104,149.32 C347.304,149.32 343.784,145.8 343.784,141 C343.784,136.2 347.304,132.68 352.104,132.68 C356.424,132.68 359.688,135.496 360.328,139.56 L356.904,139.56 C356.36,137.256 354.504,135.72 352.104,135.72 C349.224,135.72 347.144,137.96 347.144,141 C347.144,144.04 349.224,146.28 352.104,146.28 Z M371.848,132.68 C376.648,132.68 380.168,136.2 380.168,141 C380.168,145.8 376.648,149.32 371.848,149.32 C367.048,149.32 363.528,145.8 363.528,141 C363.528,136.2 367.048,132.68 371.848,132.68 Z M371.848,146.28 C374.728,146.28 376.808,144.04 376.808,141 C376.808,137.96 374.728,135.72 371.848,135.72 C368.968,135.72 366.888,137.96 366.888,141 C366.888,144.04 368.968,146.28 371.848,146.28 Z M387.048,133 L392.072,139.72 L392.296,139.72 L397.288,133 L400.168,133 L400.168,149 L396.968,149 L396.968,137.8 L396.904,137.8 C396.904,137.8 396.584,138.824 396.008,139.592 L393.768,142.6 L390.568,142.6 L388.328,139.592 C387.752,138.824 387.432,137.8 387.432,137.8 L387.368,137.8 L387.368,149 L384.168,149 L384.168,133 L387.048,133 Z M408.168,142.44 L408.168,149 L404.968,149 L404.968,133 L416.488,133 C419.368,133 421.288,134.92 421.288,137.8 C421.288,140.552 419.368,142.44 416.488,142.44 L408.168,142.44 Z M408.168,135.88 L408.168,139.56 L416.488,139.56 C417.448,139.56 418.088,138.92 418.088,137.96 L418.088,137.48 C418.088,136.52 417.448,135.88 416.488,135.88 L408.168,135.88 Z M427.08,149 L423.688,149 L430.248,133 L435.048,133 L441.608,149 L438.152,149 L436.84,145.8 L428.392,145.8 L427.08,149 Z M429.576,142.92 L435.656,142.92 L432.776,135.88 L432.456,135.88 L429.576,142.92 Z M458.088,149 L448.168,137.96 L448.168,149 L444.968,149 L444.968,133 L447.848,133 L457.768,144.04 L457.768,133 L460.968,133 L460.968,149 L458.088,149 Z M470.728,149 L470.728,143.4 L464.008,133 L467.688,133 L470.824,137.8 C471.848,139.4 472.296,140.68 472.296,140.68 L472.36,140.68 C472.36,140.68 472.808,139.4 473.832,137.8 L476.936,133 L480.648,133 L473.928,143.4 L473.928,149 L470.728,149 Z" id="SERVICESCOMPANY" fill="#8E8FA8" fill-rule="nonzero"></path>
    </g>
</svg>