<?xml version="1.0" encoding="UTF-8"?>
<svg width="380px" height="150px" viewBox="0 0 380 150" version="1.1" xmlns="http://www.w3.org/2000/svg" xmlns:xlink="http://www.w3.org/1999/xlink">
    <!-- Generator: Sketch 55.2 (78181) - https://sketchapp.com -->
    <title>a</title>
    <desc>Created with Sketch.</desc>
    <g id="a" stroke="none" stroke-width="1" fill="none" fill-rule="evenodd">
        <rect id="Rectangle" fill="#FFED00" x="0" y="0" width="120" height="150"></rect>
        <rect id="Rectangle-Copy" fill="#FFED00" x="130" y="0" width="120" height="150"></rect>
        <rect id="Rectangle-Copy-2" fill="#FFED00" x="260" y="0" width="120" height="150"></rect>
        <polygon id="H" fill="#333333" fill-rule="nonzero" points="40.4 43 40.4 69.24 78.8 69.24 78.8 43 91.6 43 91.6 107 78.8 107 78.8 80.76 40.4 80.76 40.4 107 27.6 107 27.6 43"></polygon>
        <polygon id="n" fill="#333333" fill-rule="nonzero" points="210.08 107 170.4 62.84 170.4 107 157.6 107 157.6 43 169.12 43 208.8 87.16 208.8 43 221.6 43 221.6 107"></polygon>
        <polygon id="k" fill="#333333" fill-rule="nonzero" points="339.392 107 316.096 77.944 302.4 90.232 302.4 107 289.6 107 289.6 43 302.4 43 302.4 73.976 336.832 43 355.008 43 325.184 69.752 355.008 107"></polygon>
    </g>
</svg>