<?xml version="1.0" encoding="UTF-8"?>
<svg width="550px" height="150px" viewBox="0 0 550 150" version="1.1" xmlns="http://www.w3.org/2000/svg" xmlns:xlink="http://www.w3.org/1999/xlink">
    <!-- Generator: Sketch 55.2 (78181) - https://sketchapp.com -->
    <title>Artboard Copy 18</title>
    <desc>Created with Sketch.</desc>
    <g id="Artboard-Copy-18" stroke="none" stroke-width="1" fill="none" fill-rule="evenodd">
        <g id="Group" transform="translate(0.000000, 42.000000)" fill="#FF1829" fill-rule="nonzero">
            <polygon id="Rectangle-Copy-9" points="47.167203 0 66 0 18.2325079 66 0 66"></polygon>
        </g>
        <g id="Group-Copy" transform="translate(37.000000, 42.000000)" fill-rule="nonzero">
            <polygon id="Rectangle-Copy-11" fill="#00BAC9" transform="translate(80.000000, 33.000000) scale(1, -1) translate(-80.000000, -33.000000) " points="94.167203 0 113 0 65.2325079 66 47 66"></polygon>
            <polygon id="Rectangle-Copy-9" fill="#FF1829" points="47.167203 0 66 0 18.2325079 66 0 66"></polygon>
        </g>
        <path d="M212.384236,80.9423077 L193.300493,80.9423077 L193.300493,69.3461538 L226.216749,69.3461538 C226.472906,71.0211538 226.600985,72.6961538 226.600985,74.5 C226.600985,93.8269231 212.512315,108 193.300493,108 C174.08867,108 160,93.8269231 160,74.5 C160,55.1730769 174.08867,41 193.300493,41 C202.906404,41 211.231527,44.4788462 217.123153,50.4057692 L208.029557,59.6826923 C204.44335,55.6884615 199.320197,53.2403846 193.300493,53.2403846 C181.773399,53.2403846 173.448276,62.2596154 173.448276,74.5 C173.448276,86.7403846 181.773399,95.7596154 193.300493,95.7596154 C202.650246,95.7596154 209.950739,89.8326923 212.384236,80.9423077 Z M242.610837,106.711538 L242.610837,42.2884615 L288.719212,42.2884615 C300.246305,42.2884615 307.931034,50.0192308 307.931034,61.6153846 C307.931034,71.9230769 301.270936,79.1384615 291.152709,80.1692308 C292.049261,81.2 292.945813,82.3596154 293.458128,83.2615385 L307.931034,106.711538 L293.458128,106.711538 L277.192118,80.2980769 L255.418719,80.2980769 L255.418719,106.711538 L242.610837,106.711538 Z M255.418719,68.7019231 L288.719212,68.7019231 C292.561576,68.7019231 295.123153,66.125 295.123153,62.2596154 L295.123153,60.3269231 C295.123153,56.4615385 292.561576,53.8846154 288.719212,53.8846154 L255.418719,53.8846154 L255.418719,68.7019231 Z M354.679803,41 C373.891626,41 387.980296,55.1730769 387.980296,74.5 C387.980296,93.8269231 373.891626,108 354.679803,108 C335.46798,108 321.37931,93.8269231 321.37931,74.5 C321.37931,55.1730769 335.46798,41 354.679803,41 Z M354.679803,95.7596154 C366.206897,95.7596154 374.53202,86.7403846 374.53202,74.5 C374.53202,62.2596154 366.206897,53.2403846 354.679803,53.2403846 C343.152709,53.2403846 334.827586,62.2596154 334.827586,74.5 C334.827586,86.7403846 343.152709,95.7596154 354.679803,95.7596154 Z M434.729064,95.7596154 C445.103448,95.7596154 452.660099,87.3846154 452.660099,75.7884615 L452.660099,42.2884615 L465.46798,42.2884615 L465.46798,75.7884615 C465.46798,94.3423077 452.403941,108 434.729064,108 C417.054187,108 403.990148,94.3423077 403.990148,75.7884615 L403.990148,42.2884615 L416.79803,42.2884615 L416.79803,75.7884615 C416.79803,87.3846154 424.35468,95.7596154 434.729064,95.7596154 Z M497.487685,80.2980769 L497.487685,106.711538 L484.679803,106.711538 L484.679803,42.2884615 L530.788177,42.2884615 C542.315271,42.2884615 550,50.0192308 550,61.6153846 C550,72.6961538 542.315271,80.2980769 530.788177,80.2980769 L497.487685,80.2980769 Z M497.487685,53.8846154 L497.487685,68.7019231 L530.788177,68.7019231 C534.630542,68.7019231 537.192118,66.125 537.192118,62.2596154 L537.192118,60.3269231 C537.192118,56.4615385 534.630542,53.8846154 530.788177,53.8846154 L497.487685,53.8846154 Z" id="GROUP" fill="#333333" fill-rule="nonzero"></path>
    </g>
</svg>