<svg xmlns="http://www.w3.org/2000/svg" viewBox="0 0 978.2 345.13"><defs><style>.cls-1{fill:#071a52;}.cls-2{fill:#f58634;}</style></defs><title>Logo naranja azul</title><g id="Capa_2" data-name="Capa 2"><g id="Capa_1-2" data-name="Capa 1"><polygon class="cls-1" points="90.61 332.89 90.61 344.1 25.19 344.1 25.19 253.94 88.81 253.94 88.81 265.15 38.07 265.15 38.07 292.84 83.28 292.84 83.28 303.79 38.07 303.79 38.07 332.89 90.61 332.89"/><path class="cls-1" d="M118.11,342q-9.47-3.15-14.87-8.18l4.76-10a39.45,39.45,0,0,0,13.2,7.53,48.56,48.56,0,0,0,16.55,2.9q11.2,0,16.74-3.8A11.71,11.71,0,0,0,160,320.27a9.94,9.94,0,0,0-3-7.53,20.05,20.05,0,0,0-7.46-4.45q-4.46-1.55-12.56-3.47a128.7,128.7,0,0,1-16.42-4.9,27.09,27.09,0,0,1-10.69-7.53q-4.44-5.08-4.44-13.72a23.24,23.24,0,0,1,3.79-13,26.19,26.19,0,0,1,11.53-9.27q7.73-3.48,19.19-3.48A60.46,60.46,0,0,1,155.65,255a41.75,41.75,0,0,1,13.27,5.92l-4.25,10.3a47,47,0,0,0-12.11-5.47,45.35,45.35,0,0,0-12.62-1.87q-11,0-16.42,4a12.24,12.24,0,0,0-5.47,10.31,9.85,9.85,0,0,0,3.09,7.53,21.39,21.39,0,0,0,7.66,4.51,120.16,120.16,0,0,0,12.43,3.41,125.72,125.72,0,0,1,16.35,4.9A27.44,27.44,0,0,1,168.21,306q4.44,5,4.44,13.52a23.06,23.06,0,0,1-3.86,12.94q-3.87,5.87-11.72,9.27t-19.32,3.42A61.53,61.53,0,0,1,118.11,342Z"/><polygon class="cls-1" points="208.07 265.15 177.16 265.15 177.16 253.94 251.73 253.94 251.73 265.15 220.82 265.15 220.82 344.1 208.07 344.1 208.07 265.15"/><path class="cls-1" d="M333.38,303.14q5.14-7.33,5.15-17.77,0-14.69-10-23.05t-27.56-8.38H265.76V344.1h12.88V316.66h22.28c1.37,0,3.26-.08,5.67-.25L326,344.1h14l-21.38-30.27A29.13,29.13,0,0,0,333.38,303.14Zm-32.85,2.58H278.64V265.15h21.89q12.24,0,18.68,5.22t6.44,15q0,9.79-6.44,15.07T300.53,305.72Z"/><path class="cls-1" d="M422.37,304.69q0,14.67-6.57,21.83t-18.93,7.14q-25.38,0-25.38-29V253.94H358.62V305.2q0,19.32,10,29.62t28.08,10.31q18,0,28.07-10.24t10.05-29.69V253.94H422.37Z"/><path class="cls-1" d="M484.05,268.88a36.8,36.8,0,0,1,18.16-4.5,33.57,33.57,0,0,1,25.37,10.69L536,267A39.56,39.56,0,0,0,521,256.46a51.1,51.1,0,0,0-19.31-3.55,50.13,50.13,0,0,0-24.47,6,44,44,0,0,0-17.13,16.49,48.27,48.27,0,0,0,0,47.26,44.06,44.06,0,0,0,17.06,16.49,49.82,49.82,0,0,0,24.41,6A50.82,50.82,0,0,0,521,341.52,40,40,0,0,0,536,331l-8.37-8.11a33.65,33.65,0,0,1-25.37,10.81,36.8,36.8,0,0,1-18.16-4.5,32.65,32.65,0,0,1-12.68-12.43,36.6,36.6,0,0,1,0-35.42A32.65,32.65,0,0,1,484.05,268.88Z"/><polygon class="cls-1" points="540.33 265.15 571.24 265.15 571.24 344.1 583.99 344.1 583.99 265.15 614.9 265.15 614.9 253.94 540.33 253.94 540.33 265.15"/><path class="cls-1" d="M690.24,304.69q0,14.67-6.57,21.83t-18.93,7.14q-25.37,0-25.37-29V253.94H626.49V305.2q0,19.32,10,29.62t28.07,10.31q18,0,28.08-10.24t10-29.69V253.94H690.24Z"/><path class="cls-1" d="M796.74,303.14q5.16-7.33,5.16-17.77,0-14.69-10-23.05t-27.56-8.38H729.13V344.1H742V316.66h22.28c1.37,0,3.26-.08,5.67-.25L789.4,344.1h14l-21.38-30.27A29.06,29.06,0,0,0,796.74,303.14Zm-32.84,2.58H742V265.15H763.9q12.24,0,18.68,5.22t6.44,15q0,9.79-6.44,15.07T763.9,305.72Z"/><path class="cls-1" d="M849.93,253.94,809.11,344.1h13.26l9.92-22.54H880.2l9.91,22.54h13.53l-41-90.16ZM836.8,311.25l19.44-44.17,19.45,44.17Z"/><path class="cls-1" d="M973.76,306a27.44,27.44,0,0,0-10.63-7.47,125.72,125.72,0,0,0-16.35-4.9,120.16,120.16,0,0,1-12.43-3.41,21.39,21.39,0,0,1-7.66-4.51,9.85,9.85,0,0,1-3.09-7.53,12.24,12.24,0,0,1,5.47-10.31q5.48-4,16.42-4a45.35,45.35,0,0,1,12.62,1.87,47,47,0,0,1,12.11,5.47l4.25-10.3A41.75,41.75,0,0,0,961.2,255a60.46,60.46,0,0,0-15.71-2.07q-11.46,0-19.19,3.48a26.19,26.19,0,0,0-11.53,9.27,23.24,23.24,0,0,0-3.79,13q0,8.63,4.44,13.72a27.09,27.09,0,0,0,10.69,7.53,129.21,129.21,0,0,0,16.42,4.9q8.12,1.92,12.56,3.47a20.05,20.05,0,0,1,7.46,4.45,9.94,9.94,0,0,1,3,7.53A11.71,11.71,0,0,1,960,330.38q-5.53,3.8-16.74,3.8a48.56,48.56,0,0,1-16.55-2.9,39.45,39.45,0,0,1-13.2-7.53l-4.76,10q5.4,5,14.87,8.18a61.53,61.53,0,0,0,19.64,3.16q11.46,0,19.32-3.42t11.72-9.27a23.06,23.06,0,0,0,3.86-12.94Q978.2,311,973.76,306Z"/><path class="cls-2" d="M237.73,121.56A106.26,106.26,0,0,1,131.46,227.83H25.19V130.21L65.58,89.82,74.42,81v106.6h48.92a65.93,65.93,0,1,0,0-131.86H0V15.29H129.1l0,0c.77,0,1.55,0,2.32,0A106.27,106.27,0,0,1,237.73,121.56Z"/><path class="cls-1" d="M460.34,152.47V227.8H411.13V151.87L328.82,15.19h52.24l56.8,94.46,56.8-94.46H543Z"/><path class="cls-1" d="M978.2,15.19V227.8H937.81L831.8,98.71V227.8H783.2V15.19h40.7L929.6,144.28V15.19Z"/><polyline class="cls-1" points="289.6 0 259.43 0 259.43 94.56 289.6 94.56"/><polygon class="cls-1" points="709.4 227.8 641.36 63.48 573.02 227.8 522.6 227.8 617.37 15.19 665.96 15.19 761.03 227.8 709.4 227.8"/></g></g></svg>