<svg xmlns="http://www.w3.org/2000/svg" fill="none" width="133" height="48"><g clip-path="url(#clip0)"><path d="M12.042 44.368v1.494H3.348V33.847h8.455v1.494H5.059v3.69h6.009v1.46H5.059v3.878zm3.655 1.215c-.84-.28-1.498-.643-1.977-1.09l.633-1.333a5.24 5.24 0 001.754 1.003c.705.256 1.45.387 2.2.387.992 0 1.734-.169 2.224-.507a1.56 1.56 0 00.733-1.356 1.328 1.328 0 00-.4-1.004 2.663 2.663 0 00-.99-.593 18.04 18.04 0 00-1.67-.463 17.086 17.086 0 01-2.182-.653 3.6 3.6 0 01-1.42-1.003c-.394-.452-.59-1.061-.59-1.829a3.104 3.104 0 01.503-1.733c.382-.55.914-.98 1.532-1.235.685-.31 1.535-.464 2.55-.464a8.01 8.01 0 012.088.277 5.53 5.53 0 011.764.79l-.565 1.372a6.236 6.236 0 00-1.61-.729 6.015 6.015 0 00-1.676-.25c-.975 0-1.702.178-2.182.534a1.628 1.628 0 00-.727 1.374 1.317 1.317 0 00.41 1.004c.294.27.64.474 1.018.6.542.182 1.094.333 1.652.455a16.66 16.66 0 012.173.653 3.647 3.647 0 011.413.995c.393.444.59 1.045.59 1.802a3.08 3.08 0 01-.513 1.724c-.343.522-.862.934-1.558 1.236-.695.302-1.551.454-2.567.456a8.157 8.157 0 01-2.61-.42zM27.652 35.34h-4.108v-1.494h9.91v1.494h-4.108v10.522h-1.694zm16.653 5.063c.456-.651.684-1.44.685-2.368 0-1.305-.443-2.33-1.33-3.072-.885-.743-2.106-1.116-3.662-1.117h-4.68v12.016h1.713v-3.657h2.96c.183 0 .434-.01.754-.033l2.58 3.69h1.86l-2.841-4.034a3.871 3.871 0 001.961-1.425zm-4.365.344h-2.91V35.34h2.91c1.084 0 1.912.232 2.482.695.57.464.856 1.13.856 2 0 .87-.285 1.54-.856 2.008-.57.47-1.398.704-2.482.704zm16.192-.137c0 1.303-.291 2.273-.873 2.91-.582.636-1.421.953-2.516.951-2.249 0-3.373-1.288-3.373-3.865v-6.76h-1.71v6.832c0 1.716.443 3.032 1.329 3.948.885.915 2.13 1.373 3.731 1.374 1.595 0 2.838-.455 3.73-1.365.893-.91 1.338-2.229 1.336-3.957v-6.832h-1.654zm8.197-4.773a4.878 4.878 0 012.413-.6 4.45 4.45 0 013.372 1.425l1.119-1.075a5.257 5.257 0 00-1.994-1.405 6.774 6.774 0 00-2.566-.473 6.648 6.648 0 00-3.252.8 5.854 5.854 0 00-2.276 2.197 6.447 6.447 0 000 6.3 5.863 5.863 0 002.267 2.197c.995.54 2.112.816 3.244.8a6.737 6.737 0 002.583-.484 5.316 5.316 0 001.994-1.402l-1.112-1.081a4.473 4.473 0 01-3.372 1.44 4.88 4.88 0 01-2.413-.6 4.345 4.345 0 01-1.686-1.656 4.89 4.89 0 010-4.72 4.345 4.345 0 011.679-1.663zm7.479-.497h4.108v10.522h1.695V35.34h4.108v-1.494h-9.91zm19.922 5.27c0 1.303-.29 2.273-.872 2.91-.582.636-1.42.953-2.516.951-2.248 0-3.372-1.288-3.372-3.865v-6.76h-1.71v6.832c0 1.716.443 3.032 1.329 3.948.886.915 2.13 1.373 3.73 1.374 1.595 0 2.839-.455 3.732-1.365.893-.91 1.336-2.229 1.329-3.957v-6.832h-1.65zm14.154-.207c.458-.651.686-1.44.686-2.368 0-1.305-.443-2.33-1.329-3.072-.886-.743-2.107-1.116-3.662-1.117h-4.68v12.016h1.71v-3.657h2.962c.182 0 .433-.01.753-.033l2.585 3.69h1.861l-2.842-4.034a3.858 3.858 0 001.956-1.425zm-4.364.344h-2.91V35.34h2.91c1.085 0 1.912.232 2.483.695.57.464.856 1.13.856 2 0 .87-.286 1.54-.856 2.008-.571.47-1.398.704-2.483.704zm11.433-6.901l-5.425 12.017h1.763l1.318-3.005h6.367l1.317 3.005h1.798l-5.449-12.017zm-1.745 7.638l2.584-5.887 2.585 5.887zm18.202-.699a3.648 3.648 0 00-1.413-.996 16.594 16.594 0 00-2.173-.653 16.038 16.038 0 01-1.652-.454 2.849 2.849 0 01-1.018-.602 1.324 1.324 0 01-.41-1.003 1.628 1.628 0 01.727-1.374c.485-.356 1.213-.534 2.182-.534a6.01 6.01 0 011.677.25c.568.165 1.11.41 1.609.729l.565-1.373a5.536 5.536 0 00-1.763-.788 8.016 8.016 0 00-2.088-.276c-1.015 0-1.866.155-2.55.464a3.483 3.483 0 00-1.533 1.236 3.103 3.103 0 00-.503 1.733c0 .766.196 1.376.59 1.828.384.446.872.79 1.42 1.004.713.266 1.442.484 2.183.653.719.17 1.275.325 1.669.462.369.123.708.325.991.593a1.33 1.33 0 01.399 1.004 1.569 1.569 0 01-.738 1.346c-.49.338-1.231.507-2.224.507a6.44 6.44 0 01-2.2-.387 5.236 5.236 0 01-1.754-1.003l-.633 1.332c.479.445 1.137.808 1.976 1.09a8.163 8.163 0 002.611.422c1.015 0 1.871-.152 2.567-.456.697-.304 1.216-.716 1.558-1.236.338-.51.517-1.11.513-1.724.003-.752-.192-1.35-.585-1.794z" fill="#FCFCFC"/><path d="M31.594 16.202a14.197 14.197 0 01-4.137 10.016 14.087 14.087 0 01-9.987 4.148H3.349V17.355l5.367-5.383 1.175-1.176v14.208h6.501a8.749 8.749 0 006.196-2.574 8.8 8.8 0 002.566-6.213 8.8 8.8 0 00-2.566-6.214 8.75 8.75 0 00-6.195-2.574H0V2.04h17.465a14.088 14.088 0 019.99 4.146 14.2 14.2 0 014.138 10.017z" fill="#ffcc29"/><path d="M61.178 20.322v10.04h-6.54v-10.12L43.699 2.023h6.943l7.548 12.59 7.549-12.59h6.424zM130 2.024v28.338h-5.368l-14.088-17.206v17.206h-6.459V2.024h5.409l14.047 17.206V2.024zM38.487 0h-4.01v12.603h4.01m55.79 17.759L85.235 8.46l-9.082 21.9h-6.7L82.046 2.025h6.457l12.635 28.338z" fill="#FCFCFC"/></g><defs id="defs39"><clipPath id="clip0"><path fill="#fff" id="rect36" d="M0 0h130v46H0z"/></clipPath></defs></svg>