<svg xmlns="http://www.w3.org/2000/svg" viewBox="0 0 512 512"><path d="M208.057 362.515c-15.603-10.082-36.424-5.606-46.506 9.996 10.082-15.603 5.606-36.424-9.996-46.506-15.603-10.082-36.424-5.606-46.506 9.996 10.082-15.603 5.606-36.424-9.996-46.506-15.603-10.082-36.424-5.606-46.506 9.996l-34.484 53.367c-10.082 15.603-5.606 36.424 9.996 46.506 15.603 10.082 36.424 5.606 46.506-9.996-10.082 15.603-5.606 36.424 9.996 46.506 15.603 10.082 36.424 5.606 46.506-9.996-10.082 15.603-5.606 36.424 9.996 46.506s36.424 5.606 46.506-9.996l34.484-53.367c10.082-15.603 5.606-36.425-9.996-46.506z" fill="#FFC845"/><path d="M436.601 270.49l-.902-.587L264.31 158.311l-27.309 41.448c-12.201 18.777-32.847 29.983-55.264 29.983a65.673 65.673 0 01-35.716-10.548c-30.505-19.712-39.287-60.566-19.603-91.029l16.405-25.475-57.557-13.847L0 264.877l20.909 17.996.565-.875c12.19-18.865 32.885-30.127 55.358-30.125a65.683 65.683 0 0135.713 10.548c10.11 6.532 18.066 15.492 23.267 26.008a65.681 65.681 0 0133.235 10.502c10.11 6.532 18.066 15.492 23.267 26.007a65.656 65.656 0 0133.235 10.503c30.505 19.711 39.287 60.566 19.575 91.071l-18.284 28.296 28.307 18.767c15.603 10.082 36.424 5.606 46.506-9.996 10.082-15.603 5.606-36.424-9.996-46.506l11.442 7.394c15.603 10.082 36.424 5.606 46.506-9.996 10.082-15.603 5.606-36.423-9.995-46.505l11.441 7.393c15.603 10.082 36.424 5.606 46.506-9.996 10.081-15.602 5.608-36.42-9.992-46.503l11.438 7.391c15.603 10.082 36.424 5.606 46.506-9.996 9.845-15.233 5.807-35.434-8.908-45.765z" fill="#FFC845"/><path d="M467.068 33.035l-246.101 7.839-67.449 104.74c-10.082 15.603-5.606 36.424 9.996 46.506 15.603 10.082 36.424 5.606 46.506-9.996l45.013-68.316 9.854 6.416 177.625 115.652L512 184.419 467.068 33.035z" fill="#FFC845"/></svg>