<svg xmlns="http://www.w3.org/2000/svg" fill="none" width="38.487" height="30.366"><g clip-path="url(#clip0)"><path d="M31.594 16.202a14.197 14.197 0 01-4.137 10.016 14.087 14.087 0 01-9.987 4.148H3.349V17.355l5.367-5.383 1.175-1.176v14.208h6.501a8.749 8.749 0 006.196-2.574 8.8 8.8 0 002.566-6.213 8.8 8.8 0 00-2.566-6.214 8.75 8.75 0 00-6.195-2.574H0V2.04h17.465a14.088 14.088 0 019.99 4.146 14.2 14.2 0 014.138 10.017z" fill="#071A52"/><path d="M38.487 0h-4.01v12.603h4.01" fill="#FFC845"/></g><defs id="defs39"><clipPath id="clip0"><path fill="#fff" id="rect36" d="M0 0h130v46H0z"/></clipPath></defs></svg>