<?xml version="1.0" encoding="UTF-8" standalone="no"?>
<svg
   xmlns:dc="http://purl.org/dc/elements/1.1/"
   xmlns:cc="http://creativecommons.org/ns#"
   xmlns:rdf="http://www.w3.org/1999/02/22-rdf-syntax-ns#"
   xmlns:svg="http://www.w3.org/2000/svg"
   xmlns="http://www.w3.org/2000/svg"
   xmlns:sodipodi="http://sodipodi.sourceforge.net/DTD/sodipodi-0.dtd"
   xmlns:inkscape="http://www.inkscape.org/namespaces/inkscape"
   width="16.000175"
   height="20"
   viewBox="0 0 16.000175 20"
   version="1.1"
   id="svg6"
   sodipodi:docname="map.svg"
   inkscape:version="1.0.2-2 (e86c870879, 2021-01-15)">
  <metadata
     id="metadata12">
    <rdf:RDF>
      <cc:Work
         rdf:about="">
        <dc:format>image/svg+xml</dc:format>
        <dc:type
           rdf:resource="http://purl.org/dc/dcmitype/StillImage" />
      </cc:Work>
    </rdf:RDF>
  </metadata>
  <defs
     id="defs10" />
  <sodipodi:namedview
     pagecolor="#ffffff"
     bordercolor="#666666"
     borderopacity="1"
     objecttolerance="10"
     gridtolerance="10"
     guidetolerance="10"
     inkscape:pageopacity="0"
     inkscape:pageshadow="2"
     inkscape:window-width="1280"
     inkscape:window-height="737"
     id="namedview8"
     showgrid="false"
     inkscape:zoom="22"
     inkscape:cx="8.000088"
     inkscape:cy="10"
     inkscape:window-x="-8"
     inkscape:window-y="-8"
     inkscape:window-maximized="1"
     inkscape:current-layer="svg6" />
  <path
     d="m 8.000088,12 c 2.206,0 4,-1.794 4,-4 0,-2.206 -1.794,-4 -4,-4 -2.206,0 -4,1.794 -4,4 0,2.206 1.794,4 4,4 z m 0,-6 c 1.103,0 2,0.897 2,2 0,1.103 -0.897,2 -2,2 -1.103,0 -2,-0.897 -2,-2 0,-1.103 0.897,-2 2,-2 z"
     fill="#ffc845"
     id="path2" />
  <path
     d="m 7.420088,19.814 c 0.174,0.124 0.377,0.186 0.58,0.186 0.203,0 0.406,-0.062 0.58,-0.186 0.304,-0.215 7.449,-5.374 7.42,-11.814 0,-4.411 -3.589,-8 -8,-8 C 3.589088,0 8.8037727e-5,3.589 8.8037727e-5,7.995 -0.02891196,14.44 7.116088,19.599 7.420088,19.814 Z M 8.000088,2 c 3.309,0 6,2.691 6,6.005 0.021,4.438 -4.388,8.423 -6,9.73 -1.611,-1.308 -6.021,-5.294 -6,-9.735 0,-3.309 2.691,-6 6,-6 z"
     fill="#ffc845"
     id="path4" />
</svg>
