<svg width="14" height="14" viewBox="0 0 14 14" fill="none" xmlns="http://www.w3.org/2000/svg">
<path d="M10.8375 7.58183C10.5494 7.29381 10.0839 7.29381 9.79587 7.58183L8.62168 8.75602C8.07731 8.59396 7.0615 8.22565 6.41768 7.58183C5.77387 6.93802 5.40555 5.9222 5.24349 5.37783L6.41768 4.20364C6.7057 3.91562 6.7057 3.45007 6.41768 3.16205L3.47116 0.215529C3.18314 -0.0724939 2.71759 -0.0724939 2.42957 0.215529L0.431825 2.21327C0.151905 2.49319 -0.00573353 2.87771 0.000159513 3.27033C0.017102 4.3193 0.294812 7.96267 3.1662 10.8341C6.03758 13.7054 9.68095 13.9824 10.7307 14.0001C10.7343 14.0001 10.7476 14.0001 10.7513 14.0001C11.1402 14.0001 11.5078 13.8469 11.7862 13.5684L13.784 11.5707C14.072 11.2827 14.072 10.8171 13.784 10.5291L10.8375 7.58183ZM10.7439 12.5261C9.8246 12.5106 6.67918 12.2639 4.20779 9.79172C1.72829 7.31222 1.48815 4.15576 1.47342 3.25486L2.95036 1.77792L4.85529 3.68285L3.90283 4.63531C3.72677 4.81063 3.65164 5.06403 3.70246 5.30712C3.72014 5.39183 4.15254 7.40062 5.37535 8.62343C6.59816 9.84623 8.60695 10.2786 8.69166 10.2963C8.93696 10.3486 9.18815 10.2727 9.36347 10.0967L10.3167 9.14422L12.2216 11.0491L10.7439 12.5261Z" fill="#FFC845"/>
</svg>
