<svg width="374" height="150" xmlns="http://www.w3.org/2000/svg" xmlns:xlink="http://www.w3.org/1999/xlink"><defs><path d="M111.888 73.152L92.736 97.92H0V1.584h111.6L92.304 26.64H29.952v11.52h76.32L89.136 60.048H29.952v13.104h81.936zM241.776 1.584L222.48 26.64h-34.416v71.28h-29.808V26.64H113.04l19.296-25.056h109.44zm19.44 96.336l18-24.768h33.192c3.12 0 5.832.096 8.136.288-1.344-1.728-2.904-3.912-4.68-6.552a374.58 374.58 0 00-5.112-7.416l-17.28-25.488-45.216 63.936h-35.28l61.776-87.12c2.016-2.784 4.56-5.28 7.632-7.488S289.344 0 294.048 0c4.512 0 8.28 1.032 11.304 3.096 3.024 2.064 5.592 4.632 7.704 7.704l60.192 87.12H261.216z" id="a"/></defs><g fill="none" fill-rule="evenodd"><mask id="b" fill="#fff"><use xlink:href="#a"/></mask><use fill="#0050A5" fill-rule="nonzero" xlink:href="#a"/><path fill="#FFE200" mask="url(#b)" d="M0 26.5h369V33H0zm0 10h369V43H0zm0 10h369V53H0zm0 10h369V63H0zm0 10h369v7H0z"/><path d="M26.024 149.624h-1.968c-2.848 0-5.456-.224-7.824-.672-2.368-.448-4.36-1.032-5.976-1.752-1.616-.72-3.048-1.592-4.296-2.616-1.248-1.024-2.224-2.064-2.928-3.12a17.131 17.131 0 01-1.752-3.408c-.464-1.216-.768-2.32-.912-3.312-.144-.992-.216-2-.216-3.024v-1.392c0-1.504.144-2.952.432-4.344.288-1.392.936-2.936 1.944-4.632 1.008-1.696 2.336-3.152 3.984-4.368 1.648-1.216 3.984-2.24 7.008-3.072 3.024-.832 6.536-1.248 10.536-1.248h1.968c3.296 0 6.272.248 8.928.744 2.656.496 4.816 1.16 6.48 1.992 1.664.832 3.088 1.736 4.272 2.712 1.184.976 2.064 2.024 2.64 3.144.576 1.12.984 2.112 1.224 2.976.24.864.36 1.696.36 2.496v.528H38.072a14.454 14.454 0 00-.384-1.032c-.128-.304-.488-.792-1.08-1.464a7.534 7.534 0 00-2.16-1.68c-.848-.448-2.096-.856-3.744-1.224-1.648-.368-3.544-.552-5.688-.552-2.56 0-4.744.264-6.552.792-1.808.528-3.168 1.256-4.08 2.184-.912.928-1.56 1.904-1.944 2.928-.384 1.024-.576 2.144-.576 3.36v.576c0 1.152.216 2.256.648 3.312.432 1.056 1.112 2.096 2.04 3.12.928 1.024 2.304 1.84 4.128 2.448 1.824.608 3.968.912 6.432.912 7.424 0 11.76-2.112 13.008-6.336h11.856v.528c0 .864-.128 1.752-.384 2.664-.256.912-.68 1.944-1.272 3.096-.592 1.152-1.488 2.224-2.688 3.216-1.2.992-2.632 1.912-4.296 2.76-1.664.848-3.816 1.52-6.456 2.016-2.64.496-5.592.744-8.856.744zm54.033-36.96h2.064c3.104 0 5.92.216 8.448.648 2.528.432 4.648 1 6.36 1.704 1.712.704 3.208 1.568 4.488 2.592 1.28 1.024 2.28 2.048 3 3.072a14.567 14.567 0 011.752 3.36c.448 1.216.736 2.304.864 3.264s.192 1.968.192 3.024v1.44c0 1.024-.064 2.016-.192 2.976s-.416 2.056-.864 3.288a15.5 15.5 0 01-1.728 3.408c-.704 1.04-1.704 2.08-3 3.12s-2.792 1.92-4.488 2.64c-1.696.72-3.816 1.304-6.36 1.752-2.544.448-5.368.672-8.472.672h-2.064c-3.104 0-5.936-.224-8.496-.672-2.56-.448-4.688-1.032-6.384-1.752-1.696-.72-3.192-1.6-4.488-2.64-1.296-1.04-2.304-2.08-3.024-3.12a14.224 14.224 0 01-1.728-3.408c-.432-1.232-.712-2.328-.84-3.288a22.503 22.503 0 01-.192-2.976v-1.44c0-1.056.064-2.056.192-3s.408-2.032.84-3.264a13.772 13.772 0 011.728-3.384c.72-1.024 1.72-2.048 3-3.072s2.776-1.888 4.488-2.592c1.712-.704 3.848-1.272 6.408-1.704 2.56-.432 5.392-.648 8.496-.648zm15.456 18c0-.896-.112-1.752-.336-2.568-.224-.816-.656-1.648-1.296-2.496-.64-.848-1.472-1.576-2.496-2.184-1.024-.608-2.424-1.112-4.2-1.512-1.776-.4-3.816-.6-6.12-.6-9.632 0-14.448 3.12-14.448 9.36v.576c0 1.152.2 2.24.6 3.264.4 1.024 1.088 2.048 2.064 3.072s2.472 1.84 4.488 2.448c2.016.608 4.448.912 7.296.912s5.272-.296 7.272-.888c2-.592 3.496-1.392 4.488-2.4.992-1.008 1.688-2.024 2.088-3.048.4-1.024.6-2.112.6-3.264v-.672zM113.738 149v-35.712h15.888l12.336 22.224 12.384-22.224h15.312V149h-11.04v-24.72L144.554 149h-6l-14.064-24.72V149h-10.752zm90.658-11.904h-15.6V149h-11.184v-35.712h26.784c11.104 0 16.656 3.872 16.656 11.616v.48c0 7.808-5.552 11.712-16.656 11.712zm-15.6-15.696v7.68h15.408c3.456 0 5.184-1.248 5.184-3.744v-.144c0-2.528-1.728-3.792-5.184-3.792h-15.408zm61.28 13.008l-6.911-13.392-6.624 13.392h13.536zm7.49 14.592l-3.36-6.528h-21.648L229.34 149h-11.376l18.048-35.712h14.496L269.613 149h-12.048zm16.497-35.712h12.48l22.8 22.464v-22.464h11.04V149h-11.04l-24.24-23.664V149h-11.04v-35.712zM343.647 149v-13.824l-19.104-21.888h13.872l11.088 13.152 11.28-13.152h12.624l-18.576 21.888V149h-11.184z" fill="#34B8E1" fill-rule="nonzero"/></g></svg>