<svg width="420" height="150" xmlns="http://www.w3.org/2000/svg"><g fill="none" fill-rule="evenodd"><path d="M20.064 38.208h17.52v.288c0 4.32-.96 10.176-5.28 14.448-3.984 3.936-8.544 4.704-12.816 4.704-4.464 0-8.688-.816-12.528-4.608-2.256-2.208-4.704-5.856-4.704-11.424 0-4.752 1.824-9.168 4.896-12.288C9.216 27.216 13.632 24 21.264 24c6.816 0 11.904 2.448 15.312 8.112L25.68 36.384c-.528-1.056-1.728-2.688-4.272-2.688-1.968 0-3.696.72-4.896 1.824-1.536 1.44-2.64 3.84-2.64 6.576 0 2.064.672 3.696 1.824 4.896 1.296 1.344 2.784 1.728 4.512 1.728 1.248 0 4.08-.288 5.136-3.504h-6.24l.96-7.008zm24.48-13.392h11.76l-2.736 22.368 9.84-.288-1.2 9.936h-21.6l3.936-32.016zm52.032 3.648c3.504 2.88 5.328 7.056 5.328 12.096 0 9.696-7.536 17.088-17.52 17.088-10.128 0-17.904-7.104-17.904-16.368 0-9.696 7.776-17.232 17.664-17.232 4.608 0 9.072 1.584 12.432 4.416zm-12.72 19.104c3.648 0 6.336-2.928 6.336-6.816 0-3.408-2.448-6.096-5.664-6.096-3.504 0-6.336 3.024-6.336 6.72 0 3.552 2.4 6.192 5.664 6.192zm44.544-7.44l.048.288c3.36.72 5.232 3.216 5.232 6.864 0 5.664-4.608 9.552-10.896 9.552h-17.952l3.936-32.016h14.352c5.136 0 8.208 1.488 9.792 4.704.528 1.152.816 2.448.816 3.456 0 3.792-1.92 6.384-5.328 7.152zm-7.824-7.632h-1.632l-.576 4.608h1.008c2.496 0 3.6-.72 3.6-2.496 0-1.44-.864-2.112-2.4-2.112zm-1.056 11.328h-1.968l-.672 5.52h.768c3.408 0 4.896-.864 4.896-3.312 0-1.536-.912-2.208-3.024-2.208zm36.672 8.736h-7.872l-1.536 4.272h-12.48l14.784-32.016h13.248l5.952 32.016h-11.856l-.24-4.272zm-3.024-13.104l-2.16 5.808h4.416l-.48-5.808a26.027 26.027 0 01-.096-2.256c0-1.152.048-1.488.144-2.544h-.384c-.432 1.872-.72 2.928-1.44 4.8zm22.272-14.64h11.76l-2.736 22.368 9.84-.288-1.2 9.936h-21.6l3.936-32.016zm56.256 15.312l.048.288c3.36.72 5.232 3.216 5.232 6.864 0 5.664-4.608 9.552-10.896 9.552h-17.952l3.936-32.016h14.352c5.136 0 8.208 1.488 9.792 4.704.528 1.152.816 2.448.816 3.456 0 3.792-1.92 6.384-5.328 7.152zm-7.824-7.632h-1.632l-.576 4.608h1.008c2.496 0 3.6-.72 3.6-2.496 0-1.44-.864-2.112-2.4-2.112zm-1.056 11.328h-1.968l-.672 5.52h.768c3.408 0 4.896-.864 4.896-3.312 0-1.536-.912-2.208-3.024-2.208zm40.128-19.008h11.76l-2.16 17.712c-.864 6.816-1.632 8.784-4.464 11.376-2.832 2.544-6.288 3.744-10.848 3.744-4.656 0-8.544-1.2-11.328-3.456-2.544-2.064-3.6-4.56-3.6-8.4 0-.864.048-1.68.144-2.544l2.304-18.432h11.76l-2.16 17.712c-.144 1.152-.24 1.968-.24 2.352 0 1.92 1.056 2.976 2.88 2.976 2.208 0 3.264-1.392 3.744-4.896l2.208-18.144zm18.192 0h11.76l-3.936 32.016H277.2l3.936-32.016zm18.192 0h11.76l-2.736 22.368 9.84-.288-1.2 9.936h-21.6l3.936-32.016zm21.504 32.016l3.936-32.016h10.848c11.28 0 18 5.808 18 15.504 0 5.088-2.112 9.648-5.856 12.624-3.552 2.832-7.392 3.888-14.112 3.888h-12.816zm15.792-22.608h-1.44L333.6 47.328h1.632c3.84 0 6.912-3.216 6.912-7.296 0-3.36-2.352-5.808-5.52-5.808zm23.856-9.408h21.024l-1.008 8.352h-9.456l-.432 3.504h8.64l-.96 7.92h-8.64l-.432 3.648h9.792l-1.056 8.592h-21.408l3.936-32.016zm49.68 17.616c-1.44 1.152-2.352 1.536-4.752 1.872l6.96 12.528h-12.576l-2.88-7.728c-.48-1.344-1.008-3.072-1.248-4.272l-.336.048c.048 1.056.048 1.488.048 2.352 0 1.44-.096 3.024-.24 4.224l-.624 5.376h-11.616l3.936-32.016h12.72c5.232 0 7.68.672 10.08 2.592 2.352 1.968 3.744 4.944 3.744 7.968 0 2.784-1.2 5.424-3.216 7.056zm-11.856-9.024h-.912l-.72 5.76h.96C400.32 39.168 402 37.92 402 36c0-1.776-1.152-2.592-3.696-2.592zM19.92 91.048c2.784 0 5.52.48 8.304 1.488l-.96 11.376c-2.16-1.728-4.128-2.496-6.384-2.496-3.84 0-7.056 3.264-7.056 7.104 0 3.264 2.688 5.76 6.192 5.76 2.4 0 4.32-.864 6.288-2.736l-1.392 11.664c-3.12 1.056-4.992 1.44-7.296 1.44-8.88 0-15.36-6.72-15.36-15.888 0-10.176 7.536-17.712 17.664-17.712zm45.192 4.416c3.504 2.88 5.328 7.056 5.328 12.096 0 9.696-7.536 17.088-17.52 17.088-10.128 0-17.904-7.104-17.904-16.368 0-9.696 7.776-17.232 17.664-17.232 4.608 0 9.072 1.584 12.432 4.416zm-12.72 19.104c3.648 0 6.336-2.928 6.336-6.816 0-3.408-2.448-6.096-5.664-6.096-3.504 0-6.336 3.024-6.336 6.72 0 3.552 2.4 6.192 5.664 6.192zm48.696-22.752h11.76l-3.936 32.016H97.68l-5.568-11.04c-1.152-2.352-1.872-4.176-2.544-6.48l-.192-.576h-.384c.144 1.44.192 2.496.192 3.84 0 1.248-.048 2.4-.144 3.216l-1.008 11.04H76.368l3.936-32.016h11.664l5.664 12.048c.72 1.536 1.248 2.928 2.016 5.664l.288 1.056.48-.048-.096-1.056c-.144-1.776-.24-3.072-.24-4.416 0-1.296.048-2.544.192-3.792l.816-9.456zm42.072 1.488c.48.24 1.152.576 2.016 1.056l-4.272 8.496c-2.016-1.824-4.512-2.88-7.008-2.88-1.248 0-2.208.72-2.208 1.68 0 1.008.576 1.344 3.504 2.064 2.208.576 4.032 1.296 5.184 2.112 2.16 1.44 3.504 4.224 3.504 7.152 0 6.432-6.24 11.664-13.968 11.664-2.976 0-6.576-.864-9.696-2.304-.672-.336-1.68-.816-2.976-1.536l4.32-8.64c1.92 2.352 4.992 3.792 8.016 3.792 1.632 0 2.688-.72 2.688-1.872 0-1.104-.912-1.776-3.024-2.256-2.208-.432-3.408-.816-4.56-1.44-3.024-1.488-4.608-4.176-4.608-7.872 0-6.384 5.856-11.472 13.152-11.472 3.264 0 6.72.768 9.936 2.256zm8.328-1.488h22.848l-1.248 10.08-5.52-.336-2.736 22.272h-11.76l2.736-22.272-5.52.336 1.2-10.08zm52.728 17.616c-1.44 1.152-2.352 1.536-4.752 1.872l6.96 12.528h-12.576l-2.88-7.728c-.48-1.344-1.008-3.072-1.248-4.272l-.336.048c.048 1.056.048 1.488.048 2.352 0 1.44-.096 3.024-.24 4.224l-.624 5.376h-11.616l3.936-32.016h12.72c5.232 0 7.68.672 10.08 2.592 2.352 1.968 3.744 4.944 3.744 7.968 0 2.784-1.2 5.424-3.216 7.056zm-11.856-9.024h-.912l-.72 5.76h.96c2.688 0 4.368-1.248 4.368-3.168 0-1.776-1.152-2.592-3.696-2.592zm43.368-8.592h11.76l-2.16 17.712c-.864 6.816-1.632 8.784-4.464 11.376-2.832 2.544-6.288 3.744-10.848 3.744-4.656 0-8.544-1.2-11.328-3.456-2.544-2.064-3.6-4.56-3.6-8.4 0-.864.048-1.68.144-2.544l2.304-18.432h11.76l-2.16 17.712c-.144 1.152-.24 1.968-.24 2.352 0 1.92 1.056 2.976 2.88 2.976 2.208 0 3.264-1.392 3.744-4.896l2.208-18.144zm35.304-.768c2.784 0 5.52.48 8.304 1.488l-.96 11.376c-2.16-1.728-4.128-2.496-6.384-2.496-3.84 0-7.056 3.264-7.056 7.104 0 3.264 2.688 5.76 6.192 5.76 2.4 0 4.32-.864 6.288-2.736l-1.392 11.664c-3.12 1.056-4.992 1.44-7.296 1.44-8.88 0-15.36-6.72-15.36-15.888 0-10.176 7.536-17.712 17.664-17.712zm15.096.768h22.848l-1.248 10.08-5.52-.336-2.736 22.272h-11.76l2.736-22.272-5.52.336 1.2-10.08zm29.4 0h11.76l-3.936 32.016h-11.76l3.936-32.016zm47.784 3.648c3.504 2.88 5.328 7.056 5.328 12.096 0 9.696-7.536 17.088-17.52 17.088-10.128 0-17.904-7.104-17.904-16.368 0-9.696 7.776-17.232 17.664-17.232 4.608 0 9.072 1.584 12.432 4.416zm-12.72 19.104c3.648 0 6.336-2.928 6.336-6.816 0-3.408-2.448-6.096-5.664-6.096-3.504 0-6.336 3.024-6.336 6.72 0 3.552 2.4 6.192 5.664 6.192zm48.696-22.752h11.76l-3.936 32.016H395.88l-5.568-11.04c-1.152-2.352-1.872-4.176-2.544-6.48l-.192-.576h-.384c.144 1.44.192 2.496.192 3.84 0 1.248-.048 2.4-.144 3.216l-1.008 11.04h-11.664l3.936-32.016h11.664l5.664 12.048c.72 1.536 1.248 2.928 2.016 5.664l.288 1.056.48-.048-.096-1.056c-.144-1.776-.24-3.072-.24-4.416 0-1.296.048-2.544.192-3.792l.816-9.456z" fill="#333" fill-rule="nonzero"/><path fill="#FFCF2C" d="M0 69.832h420v7H0z"/></g></svg>