<svg width="490" height="150" xmlns="http://www.w3.org/2000/svg"><g fill="none" fill-rule="evenodd"><path d="M109.556 150L0 40.444V0h40.444L150 109.556V150h-40.444zm-38-150H150v78.444L71.556 0z" fill="#C0D3E7"/><path fill="#23307A" d="M78 150H0V72l78 78z"/><path d="M294.624 49.656v8.928c0 31.68-19.872 54-52.272 54-32.256 0-56.016-20.736-56.016-55.44 0-34.704 23.76-55.44 56.016-55.44 25.056 0 44.496 12.96 51.12 36.288l-28.8 4.752c-3.168-10.08-10.368-16.416-22.608-16.416-16.992 0-27.36 9.792-27.36 30.816s10.368 30.816 27.36 30.816c9.36 0 17.568-3.6 21.456-13.68h-21.456V49.656h52.56zm44.064 36.72h42.768V111h-70.56V3.288h27.792v83.088zM396 3.288h47.952c20.016 0 34.56 9.648 34.56 30.672 0 9.36-4.176 15.696-8.784 20.16 6.768 3.456 12.96 11.808 12.96 24.48 0 20.88-14.256 32.4-35.856 32.4H396V3.288zm27.792 24.624v16.272h16.704c5.904 0 9.648-2.448 9.648-8.064 0-5.904-3.6-8.208-9.36-8.208h-16.992zm0 39.888v18.576h19.728c6.768 0 10.8-2.736 10.8-9.216 0-6.48-4.032-9.36-10.944-9.36h-19.584z" fill="#23307A" fill-rule="nonzero"/><path d="M198.28 146.44c2.912 0 4.48-.832 4.48-2.336 0-1.28-1.408-1.824-4.608-1.824-5.056 0-7.232-1.344-7.232-4.576 0-3.264 2.56-5.024 7.36-5.024 4.416 0 7.36 2.048 7.36 5.12h-3.2c0-1.344-1.664-2.24-4.16-2.24-2.72 0-4.16.736-4.16 2.144 0 1.216 1.28 1.696 4.32 1.696 5.28 0 7.52 1.44 7.52 4.704 0 3.392-2.688 5.216-7.68 5.216-4.608 0-7.68-2.048-7.68-5.12h3.2c0 1.344 1.792 2.24 4.48 2.24zm27.36-10.56h-12.48v3.68h9.28v2.88h-9.28v3.68h12.48V149h-15.68v-16h15.68v2.88zm4.32 13.12v-16h11.52c2.88 0 4.8 1.92 4.8 4.8 0 2.56-1.664 4.352-4.192 4.608.224.256.448.544.576.768L246.28 149h-3.616l-4.064-6.56h-5.44V149h-3.2zm3.2-9.44h8.32c.96 0 1.6-.64 1.6-1.6v-.48c0-.96-.64-1.6-1.6-1.6h-8.32v3.68zM249 133h3.456l5.376 13.12h.32l5.376-13.12h3.392l-6.56 16h-4.8L249 133zm24.48 16h-3.2v-16h3.2v16zm12.32-2.72c2.4 0 4.256-1.568 4.8-3.84h3.424c-.64 4.064-3.904 6.88-8.224 6.88-4.8 0-8.32-3.52-8.32-8.32 0-4.8 3.52-8.32 8.32-8.32 4.32 0 7.584 2.816 8.224 6.88H290.6c-.544-2.304-2.4-3.84-4.8-3.84-2.88 0-4.96 2.24-4.96 5.28s2.08 5.28 4.96 5.28zm27.904-10.4h-12.48v3.68h9.28v2.88h-9.28v3.68h12.48V149h-15.68v-16h15.68v2.88zm11.2 10.56c2.912 0 4.48-.832 4.48-2.336 0-1.28-1.408-1.824-4.608-1.824-5.056 0-7.232-1.344-7.232-4.576 0-3.264 2.56-5.024 7.36-5.024 4.416 0 7.36 2.048 7.36 5.12h-3.2c0-1.344-1.664-2.24-4.16-2.24-2.72 0-4.16.736-4.16 2.144 0 1.216 1.28 1.696 4.32 1.696 5.28 0 7.52 1.44 7.52 4.704 0 3.392-2.688 5.216-7.68 5.216-4.608 0-7.68-2.048-7.68-5.12h3.2c0 1.344 1.792 2.24 4.48 2.24zm27.2-.16c2.4 0 4.256-1.568 4.8-3.84h3.424c-.64 4.064-3.904 6.88-8.224 6.88-4.8 0-8.32-3.52-8.32-8.32 0-4.8 3.52-8.32 8.32-8.32 4.32 0 7.584 2.816 8.224 6.88h-3.424c-.544-2.304-2.4-3.84-4.8-3.84-2.88 0-4.96 2.24-4.96 5.28s2.08 5.28 4.96 5.28zm19.744-13.6c4.8 0 8.32 3.52 8.32 8.32 0 4.8-3.52 8.32-8.32 8.32-4.8 0-8.32-3.52-8.32-8.32 0-4.8 3.52-8.32 8.32-8.32zm0 13.6c2.88 0 4.96-2.24 4.96-5.28s-2.08-5.28-4.96-5.28-4.96 2.24-4.96 5.28 2.08 5.28 4.96 5.28zm15.2-13.28l5.024 6.72h.224l4.992-6.72h2.88v16h-3.2v-11.2h-.064s-.32 1.024-.896 1.792l-2.24 3.008h-3.2l-2.24-3.008c-.576-.768-.896-1.792-.896-1.792h-.064V149h-3.2v-16h2.88zm21.12 9.44V149h-3.2v-16h11.52c2.88 0 4.8 1.92 4.8 4.8 0 2.752-1.92 4.64-4.8 4.64h-8.32zm0-6.56v3.68h8.32c.96 0 1.6-.64 1.6-1.6v-.48c0-.96-.64-1.6-1.6-1.6h-8.32zM427.08 149h-3.392l6.56-16h4.8l6.56 16h-3.456l-1.312-3.2h-8.448l-1.312 3.2zm2.496-6.08h6.08l-2.88-7.04h-.32l-2.88 7.04zm28.512 6.08l-9.92-11.04V149h-3.2v-16h2.88l9.92 11.04V133h3.2v16h-2.88zm12.64 0v-5.6l-6.72-10.4h3.68l3.136 4.8c1.024 1.6 1.472 2.88 1.472 2.88h.064s.448-1.28 1.472-2.88l3.104-4.8h3.712l-6.72 10.4v5.6h-3.2z" fill="#8E8FA8" fill-rule="nonzero"/></g></svg>