<svg width="550" height="150" xmlns="http://www.w3.org/2000/svg"><g fill="none"><path d="M47.167 42H66l-47.767 66H0z" fill="#FF1829"/><path fill="#00BAC9" d="M131.167 108H150l-47.767-66H84z"/><path fill="#FF1829" d="M84.167 42H103l-47.767 66H37z"/><path d="M212.384 80.942H193.3V69.346h32.917c.256 1.675.384 3.35.384 5.154 0 19.327-14.089 33.5-33.3 33.5C174.088 108 160 93.827 160 74.5c0-19.327 14.089-33.5 33.3-33.5 9.606 0 17.932 3.479 23.823 9.406l-9.093 9.277c-3.587-3.995-8.71-6.443-14.73-6.443-11.527 0-19.852 9.02-19.852 21.26 0 12.24 8.325 21.26 19.852 21.26 9.35 0 16.65-5.927 19.084-14.818zm30.227 25.77V42.288h46.108c11.527 0 19.212 7.731 19.212 19.327 0 10.308-6.66 17.523-16.778 18.554.896 1.031 1.793 2.19 2.305 3.093l14.473 23.45h-14.473l-16.266-26.414H255.42v26.414h-12.81zm12.808-38.01h33.3c3.843 0 6.404-2.577 6.404-6.442v-1.933c0-3.865-2.561-6.442-6.404-6.442h-33.3v14.817zM354.679 41c19.213 0 33.301 14.173 33.301 33.5 0 19.327-14.088 33.5-33.3 33.5-19.212 0-33.3-14.173-33.3-33.5 0-19.327 14.088-33.5 33.3-33.5zm0 54.76c11.528 0 19.853-9.02 19.853-21.26 0-12.24-8.325-21.26-19.852-21.26-11.527 0-19.852 9.02-19.852 21.26 0 12.24 8.325 21.26 19.852 21.26zm80.05 0c10.374 0 17.931-8.375 17.931-19.972v-33.5h12.808v33.5c0 18.554-13.064 32.212-30.739 32.212S403.99 94.342 403.99 75.788v-33.5h12.808v33.5c0 11.597 7.557 19.972 17.931 19.972zm62.759-15.462v26.414H484.68V42.288h46.108c11.527 0 19.212 7.731 19.212 19.327 0 11.081-7.685 18.683-19.212 18.683h-33.3zm0-26.413v14.817h33.3c3.843 0 6.404-2.577 6.404-6.442v-1.933c0-3.865-2.561-6.442-6.404-6.442h-33.3z" fill="#333"/></g></svg>